<svg width="231" height="243" viewBox="0 0 231 243" fill="none" xmlns="http://www.w3.org/2000/svg">
<path d="M93.1918 231L83.7358 215.88H82.8238L69.7678 197.112H78.7438L88.0558 211.32H88.9678L102.024 231H93.1918ZM69.1438 231L81.6718 212.856L87.4798 216.12L77.7358 231H69.1438ZM89.2558 215.016L83.4478 211.752L92.8558 197.112H101.448L89.2558 215.016ZM114.347 231.528C111.819 231.528 109.563 231.016 107.579 229.992C105.627 228.936 104.091 227.48 102.971 225.624C101.851 223.768 101.291 221.672 101.291 219.336C101.291 217 101.835 214.92 102.923 213.096C104.043 211.24 105.547 209.784 107.435 208.728C109.323 207.672 111.451 207.144 113.819 207.144C116.123 207.144 118.155 207.64 119.915 208.632C121.675 209.624 123.051 211 124.043 212.76C125.067 214.52 125.579 216.536 125.579 218.808C125.579 219.224 125.547 219.672 125.483 220.152C125.451 220.6 125.371 221.128 125.243 221.736L105.131 221.784V216.744L122.123 216.696L118.955 218.808C118.923 217.464 118.715 216.36 118.331 215.496C117.947 214.6 117.371 213.928 116.603 213.48C115.867 213 114.955 212.76 113.867 212.76C112.715 212.76 111.707 213.032 110.843 213.576C110.011 214.088 109.355 214.824 108.875 215.784C108.427 216.744 108.203 217.912 108.203 219.288C108.203 220.664 108.443 221.848 108.923 222.84C109.435 223.8 110.139 224.552 111.035 225.096C111.963 225.608 113.051 225.864 114.299 225.864C115.451 225.864 116.491 225.672 117.419 225.288C118.347 224.872 119.163 224.264 119.867 223.464L123.899 227.496C122.747 228.84 121.355 229.848 119.723 230.52C118.091 231.192 116.299 231.528 114.347 231.528ZM128.404 231V207.672H135.748V231H128.404ZM135.748 218.184L132.676 215.784C133.284 213.064 134.308 210.952 135.748 209.448C137.188 207.944 139.188 207.192 141.748 207.192C142.868 207.192 143.844 207.368 144.676 207.72C145.54 208.04 146.292 208.552 146.932 209.256L142.564 214.776C142.244 214.424 141.844 214.152 141.364 213.96C140.884 213.768 140.34 213.672 139.732 213.672C138.516 213.672 137.54 214.056 136.804 214.824C136.1 215.56 135.748 216.68 135.748 218.184ZM158.744 231.528C156.344 231.528 154.168 231 152.216 229.944C150.296 228.856 148.776 227.384 147.656 225.528C146.536 223.672 145.976 221.592 145.976 219.288C145.976 216.984 146.536 214.92 147.656 213.096C148.776 211.272 150.296 209.832 152.216 208.776C154.136 207.688 156.312 207.144 158.744 207.144C161.176 207.144 163.352 207.672 165.272 208.728C167.192 209.784 168.712 211.24 169.832 213.096C170.952 214.92 171.512 216.984 171.512 219.288C171.512 221.592 170.952 223.672 169.832 225.528C168.712 227.384 167.192 228.856 165.272 229.944C163.352 231 161.176 231.528 158.744 231.528ZM158.744 224.856C159.8 224.856 160.728 224.632 161.528 224.184C162.328 223.704 162.936 223.048 163.352 222.216C163.8 221.352 164.024 220.376 164.024 219.288C164.024 218.2 163.8 217.256 163.352 216.456C162.904 215.624 162.28 214.984 161.48 214.536C160.712 214.056 159.8 213.816 158.744 213.816C157.72 213.816 156.808 214.056 156.008 214.536C155.208 214.984 154.584 215.624 154.136 216.456C153.688 217.288 153.464 218.248 153.464 219.336C153.464 220.392 153.688 221.352 154.136 222.216C154.584 223.048 155.208 223.704 156.008 224.184C156.808 224.632 157.72 224.856 158.744 224.856Z" fill="#191919"/>
<g filter="url(#filter0_d_1595_173)">
<circle cx="115.488" cy="114.502" r="20.5" fill="#EC7E2E"/>
<path fill-rule="evenodd" clip-rule="evenodd" d="M180.011 87.4217C180.652 90.5147 180.988 93.719 180.988 97.002V133.002C180.988 158.959 159.946 180.002 133.988 180.002H97.9883C72.0309 180.002 50.9883 158.959 50.9883 133.002V97.0019C50.9883 71.0446 72.0309 50.002 97.9883 50.002H133.988C136.669 50.002 139.298 50.2264 141.857 50.6577C136.998 55.4614 133.988 62.1301 133.988 69.502C133.988 69.669 133.99 69.8357 133.993 70.002C133.991 70.002 133.99 70.002 133.988 70.002H97.9883C83.0766 70.002 70.9883 82.0903 70.9883 97.0019V133.002C70.9883 147.914 83.0766 160.002 97.9883 160.002H133.988C148.9 160.002 160.988 147.914 160.988 133.002V97.002C160.988 96.6657 160.982 96.3309 160.97 95.9977C168.503 95.8634 175.268 92.5862 180.011 87.4217Z" fill="#EC7E2E"/>
<circle cx="159.988" cy="70.002" r="14" fill="#EC7E2E"/>
</g>
<defs>
<filter id="filter0_d_1595_173" x="0.988281" y="0.00195312" width="230" height="230" filterUnits="userSpaceOnUse" color-interpolation-filters="sRGB">
<feFlood flood-opacity="0" result="BackgroundImageFix"/>
<feColorMatrix in="SourceAlpha" type="matrix" values="0 0 0 0 0 0 0 0 0 0 0 0 0 0 0 0 0 0 127 0" result="hardAlpha"/>
<feOffset/>
<feGaussianBlur stdDeviation="25"/>
<feComposite in2="hardAlpha" operator="out"/>
<feColorMatrix type="matrix" values="0 0 0 0 0.92549 0 0 0 0 0.494118 0 0 0 0 0.180392 0 0 0 0.33 0"/>
<feBlend mode="normal" in2="BackgroundImageFix" result="effect1_dropShadow_1595_173"/>
<feBlend mode="normal" in="SourceGraphic" in2="effect1_dropShadow_1595_173" result="shape"/>
</filter>
</defs>
</svg>
