<svg width="183" height="96" viewBox="0 0 183 96" fill="none" xmlns="http://www.w3.org/2000/svg">
<mask id="mask0_1594_167" style="mask-type:alpha" maskUnits="userSpaceOnUse" x="0" y="0" width="183" height="96">
<rect width="183" height="96" fill="#D9D9D9"/>
</mask>
<g mask="url(#mask0_1594_167)">
<path fill-rule="evenodd" clip-rule="evenodd" d="M26.3143 11.2501L26.1088 11.3498C25.904 11.4507 25.7011 11.5555 25.4981 11.664C22.7911 13.1118 20.6666 15.2363 19.2189 17.9433C19.1103 18.1464 19.0055 18.3493 18.9046 18.5541L18.805 18.7595C17.6247 21.2346 17.0002 24.076 17.0002 30.7402V65.8201C17.0002 72.4843 17.6247 75.3257 18.805 77.8008L18.9046 78.0062C19.0055 78.211 19.1103 78.4139 19.2189 78.6169C20.6666 81.324 22.7911 83.4485 25.4981 84.8962C25.7011 85.0048 25.904 85.1096 26.1088 85.2105L26.3143 85.3102C28.7893 86.4905 31.6307 87.115 38.2948 87.115H73.3743C80.0384 87.115 82.8798 86.4905 85.3548 85.3102L85.5603 85.2105C85.7651 85.1096 85.968 85.0048 86.171 84.8962C88.878 83.4485 91.0025 81.324 92.4502 78.6169C92.5588 78.4139 92.6636 78.211 92.7645 78.0062L92.8642 77.8008C94.0281 75.3601 94.6515 72.5632 94.6686 66.0956L94.6689 30.7402C94.6689 24.076 94.0445 21.2346 92.8642 18.7595L92.7645 18.5541C92.6636 18.3493 92.5588 18.1464 92.4502 17.9433C91.0025 15.2363 88.878 13.1118 86.171 11.664C85.968 11.5555 85.7651 11.4507 85.5603 11.3498L85.3548 11.2501C82.9142 10.0862 80.1173 9.46277 73.6498 9.44567L38.2948 9.44531C31.6307 9.44531 28.7893 10.0698 26.3143 11.2501ZM40.5966 27.0103L55.8346 42.2484L71.0725 27.0103L77.1042 33.042L61.8662 48.2801L77.1042 63.5183L71.0725 69.55L55.8346 54.3119L40.5966 69.55L34.5649 63.5183L49.8029 48.2801L34.5649 33.042L40.5966 27.0103Z" fill="#007AFF"/>
<path d="M124.607 72.9611C120.704 72.9611 117.238 72.1748 114.209 70.602C111.239 68.971 108.909 66.7575 107.219 63.9615C105.53 61.1072 104.685 57.8452 104.685 54.1755V29.5357H118.054V54.0007C118.054 55.457 118.287 56.7094 118.753 57.7579C119.277 58.8064 120.034 59.6219 121.025 60.2044C122.015 60.7869 123.209 61.0781 124.607 61.0781C126.587 61.0781 128.16 60.4665 129.325 59.2432C130.49 57.9617 131.073 56.2142 131.073 54.0007V29.5357H144.441V54.0881C144.441 57.8161 143.596 61.1072 141.907 63.9615C140.218 66.7575 137.888 68.971 134.917 70.602C131.946 72.1748 128.51 72.9611 124.607 72.9611ZM151.961 72V29.5357H165.329V72H151.961ZM158.689 23.6816C156.592 23.6816 154.844 22.9826 153.446 21.5846C152.106 20.1283 151.437 18.3808 151.437 16.3421C151.437 14.2451 152.106 12.4976 153.446 11.0996C154.844 9.70157 156.592 9.00257 158.689 9.00257C160.786 9.00257 162.504 9.70157 163.844 11.0996C165.184 12.4976 165.853 14.2451 165.853 16.3421C165.853 18.3808 165.184 20.1283 163.844 21.5846C162.504 22.9826 160.786 23.6816 158.689 23.6816Z" fill="black"/>
</g>
</svg>
