<svg width="271" height="134" viewBox="0 0 271 134" fill="none" xmlns="http://www.w3.org/2000/svg">
<path d="M46.7736 113.592L46.7736 44.7935C43.0468 45.3122 40.8691 47.2614 40.8691 51.5086L40.8691 106.877C40.8691 111.124 43.0468 113.073 46.7736 113.592Z" fill="#BBBBBB"/>
<path d="M33.0299 60.884L33.0299 113.256C29.5057 112.981 27.5908 110.843 27.5908 107.066L27.5908 67.0994C27.5908 63.3226 29.5057 61.1587 33.0299 60.884Z" fill="#BBBBBB"/>
<path d="M19.6969 75.3179L19.6969 113.256C16.1727 112.981 14.2578 110.843 14.2578 107.066L14.2578 81.5333C14.2578 77.7566 16.1727 75.5927 19.6969 75.3179Z" fill="#BBBBBB"/>
<path d="M5.4391 92.4164L5.43911 113.256C1.91491 112.981 1.43672e-05 110.843 1.42021e-05 107.066L-6.39238e-07 98.6318C-8.04326e-07 94.855 1.9149 92.6911 5.4391 92.4164Z" fill="#BBBBBB"/>
<path d="M72.5214 83.9275C70.8554 83.9275 69.6275 82.7013 69.6275 81.099C69.6275 79.5327 70.8554 78.2927 72.5214 78.2927H101.826C103.454 78.2927 104.694 79.5327 104.694 81.099C104.694 82.7013 103.454 83.9275 101.826 83.9275H72.5214ZM72.5214 97.9961C70.8554 97.9961 69.6275 96.7938 69.6275 95.2155C69.6275 93.6132 70.8554 92.3732 72.5214 92.3732H101.826C103.454 92.3732 104.694 93.6132 104.694 95.2155C104.694 96.7938 103.454 97.9961 101.826 97.9961H72.5214ZM66.9567 113.291H107.301C115.616 113.291 120 108.843 120 100.503V67.0462H91.0694C86.4251 67.0462 84.1322 64.7533 84.1322 60.0969V30.9082H66.9567C58.6802 30.9082 54.2578 35.3821 54.2578 43.7221V100.503C54.2578 108.868 58.6544 113.291 66.9567 113.291ZM92.168 61.2567H119.619C119.44 59.4552 118.068 57.7274 115.99 55.6115L95.5066 34.8583C93.5144 32.8524 91.7489 31.4922 89.9216 31.2758V59.0361C89.9216 60.5164 90.6618 61.2567 92.168 61.2567Z" fill="#BBBBBB"/>
<path d="M146 59.5C146 59.2165 145.894 58.9122 145.618 58.6498L140.179 53.546C139.761 53.154 139.485 53 139.101 53C138.515 53 138.083 53.4617 138.083 54.0372V56.5289H132.753C131.648 56.5289 131 57.173 131 58.2785V60.7504C131 61.8559 131.648 62.4956 132.753 62.4956H138.083V64.9885C138.083 65.564 138.515 66 139.092 66C139.486 66 139.798 65.8419 140.179 65.4845L145.616 60.3477C145.885 60.09 146 59.77 146 59.5Z" fill="#BBBBBB"/>
<g filter="url(#filter0_d_1486_338)">
<path d="M183.015 114H217.487C226.326 114 232.923 112.947 237.732 108.136C242.527 103.34 243.533 96.8484 243.533 87.9765V57.3772C240.885 58.4811 237.992 59.0784 234.976 59.0784C222.304 59.0784 211.888 48.6588 211.888 35.9973C211.888 32.9808 212.5 30.0868 213.604 27.4694H182.951C174.207 27.4694 167.61 28.5226 162.801 33.3335C158.006 38.1296 157 44.6379 157 53.3979V87.9765C157 96.8484 158.006 103.355 162.801 108.136C167.625 112.947 174.207 114 183.015 114ZM235.008 51.9944C243.724 51.9944 251 44.7474 251 35.9973C251 27.2471 243.724 20 235.008 20C226.261 20 219.016 27.2471 219.016 35.9973C219.016 44.7474 226.261 51.9944 235.008 51.9944Z" fill="#EC7E2E"/>
</g>
<defs>
<filter id="filter0_d_1486_338" x="137" y="0" width="134" height="134" filterUnits="userSpaceOnUse" color-interpolation-filters="sRGB">
<feFlood flood-opacity="0" result="BackgroundImageFix"/>
<feColorMatrix in="SourceAlpha" type="matrix" values="0 0 0 0 0 0 0 0 0 0 0 0 0 0 0 0 0 0 127 0" result="hardAlpha"/>
<feOffset/>
<feGaussianBlur stdDeviation="10"/>
<feComposite in2="hardAlpha" operator="out"/>
<feColorMatrix type="matrix" values="0 0 0 0 0.92549 0 0 0 0 0.494118 0 0 0 0 0.180392 0 0 0 0.33 0"/>
<feBlend mode="normal" in2="BackgroundImageFix" result="effect1_dropShadow_1486_338"/>
<feBlend mode="normal" in="SourceGraphic" in2="effect1_dropShadow_1486_338" result="shape"/>
</filter>
</defs>
</svg>
