<svg width="253" height="208" viewBox="0 0 253 208" fill="none" xmlns="http://www.w3.org/2000/svg">
<rect width="124.466" height="16" rx="8" fill="#9FA1A2"/>
<rect x="165.142" width="87.8585" height="16" rx="8" fill="#9FA1A2"/>
<rect y="32" width="253" height="16" rx="8" fill="#9FA1A2"/>
<rect y="128" width="253" height="16" rx="8" fill="#9FA1A2"/>
<rect y="64" width="253" height="16" rx="8" fill="#9FA1A2"/>
<rect y="160" width="253" height="16" rx="8" fill="#9FA1A2"/>
<rect y="96" width="54.5048" height="16" rx="8" fill="#9FA1A2"/>
<rect x="37.4209" y="192" width="215.579" height="16" rx="8" fill="#9FA1A2"/>
<rect x="95.1797" y="96" width="54.5048" height="16" rx="8" fill="#9FA1A2"/>
<rect x="190.36" y="96" width="62.6399" height="16" rx="8" fill="#9FA1A2"/>
<rect x="129.348" width="30.9132" height="16" rx="8" fill="#48A051"/>
<rect x="59.3857" y="96" width="30.9132" height="16" rx="8" fill="#828CDB"/>
<rect y="192" width="30.9132" height="16" rx="8" fill="#DB8282"/>
<rect x="154.566" y="96" width="30.9132" height="16" rx="8" fill="#E43A82"/>
</svg>
