<svg width="302" height="212" viewBox="0 0 302 212" fill="none" xmlns="http://www.w3.org/2000/svg">
<path d="M5.87695 1.90625H7.01367L4.21289 11H3.01172L0.193359 1.90625H1.44141L3.41602 8.25781L3.67383 9.18359L3.90234 8.26367L5.87695 1.90625ZM9.94922 11V5.36328H8.13281V4.45508H11.0391V10.0918H12.8613V11H9.94922ZM9.76758 2.09375C9.76758 1.84766 9.85156 1.66406 10.0195 1.54297C10.1875 1.42188 10.3457 1.36133 10.4941 1.36133C10.6465 1.36133 10.8066 1.42188 10.9746 1.54297C11.1426 1.66406 11.2266 1.84766 11.2266 2.09375C11.2266 2.33594 11.1426 2.51758 10.9746 2.63867C10.8066 2.75977 10.6465 2.82031 10.4941 2.82031C10.3457 2.82031 10.1875 2.75977 10.0195 2.63867C9.85156 2.51758 9.76758 2.33594 9.76758 2.09375ZM20.7656 10.5664C19.8945 10.9805 19.0703 11.1875 18.293 11.1875C17.7031 11.1875 17.1758 11.041 16.7109 10.748C16.2461 10.4551 15.873 10.0371 15.5918 9.49414C15.3145 8.94727 15.1758 8.36328 15.1758 7.74219C15.1758 7.14453 15.3086 6.57031 15.5742 6.01953C15.8398 5.46875 16.2109 5.04102 16.6875 4.73633C17.1641 4.42773 17.6953 4.27344 18.2812 4.27344C19.0586 4.27344 19.6816 4.55078 20.1504 5.10547C20.623 5.66016 20.8594 6.51562 20.8594 7.67188V7.90625H16.3477C16.3477 8.35938 16.4414 8.77344 16.6289 9.14844C16.8203 9.52344 17.0703 9.80469 17.3789 9.99219C17.6875 10.1797 18.0391 10.2734 18.4336 10.2734C19.1367 10.2734 19.9141 10.0391 20.7656 9.57031V10.5664ZM16.4121 7.0918H19.6758V6.93359C19.6758 6.39844 19.5449 5.97266 19.2832 5.65625C19.0215 5.33984 18.6719 5.18164 18.2344 5.18164C17.793 5.18164 17.4102 5.34375 17.0859 5.66797C16.7656 5.98828 16.541 6.46289 16.4121 7.0918ZM22.8047 11L21.7383 4.45508H22.752L23.373 8.43945L23.5371 9.36523L23.6953 8.43945L24.7383 4.45508H25.7168L26.8945 8.43945L27.0996 9.36523L27.2344 8.43945L27.8613 4.45508H28.6992L27.6387 11H26.6191L25.3652 6.78711L25.166 5.86133H25.1367L24.9551 6.78125L23.8652 11H22.8047Z" fill="#94C295"/>
<path d="M37.3184 11H36.3633V1.90625H37.5527L39.6504 7.89453L41.748 1.90625H42.9082V11H41.8184V5.20508L41.8477 4.4082H41.8184L41.5605 5.20508L40.1543 9.18359H38.9707L37.5469 5.20508L37.3184 4.4082H37.2891L37.3184 5.20508V11ZM46.5586 10.7363L43.5352 4.45508H44.7363L47.1445 9.36523L49.1602 4.45508H50.2559L47.7188 10.5371C47.1836 11.8223 46.6738 12.6758 46.1895 13.0977C45.709 13.5195 45.0859 13.7305 44.3203 13.7305C43.9883 13.7305 43.6914 13.7012 43.4297 13.6426V12.6816C43.7305 12.7754 44.0176 12.8223 44.291 12.8223C44.6426 12.8223 44.9551 12.7539 45.2285 12.6172C45.502 12.4805 45.752 12.2383 45.9785 11.8906C46.2051 11.543 46.3652 11.2422 46.459 10.9883L46.5586 10.7363ZM51.457 11V1.90625H53.2324C54.2988 1.90625 55.0117 1.98828 55.3711 2.15234C55.7344 2.3125 56.0059 2.55078 56.1855 2.86719C56.3652 3.18359 56.4551 3.54492 56.4551 3.95117C56.4551 4.27148 56.4023 4.57617 56.2969 4.86523C56.1914 5.15039 56.0352 5.41211 55.8281 5.65039C55.6211 5.88477 55.3203 6.10742 54.9258 6.31836C55.6484 6.60742 56.1367 6.96289 56.3906 7.38477C56.6484 7.80664 56.7773 8.22852 56.7773 8.65039C56.7773 9.05273 56.668 9.44336 56.4492 9.82227C56.2344 10.2012 55.9316 10.4922 55.541 10.6953C55.1504 10.8984 54.5254 11 53.666 11H51.457ZM52.6406 6.00195H53.8828C54.2852 5.83398 54.5781 5.6582 54.7617 5.47461C54.9492 5.28711 55.0879 5.08008 55.1777 4.85352C55.2715 4.62305 55.3184 4.37109 55.3184 4.09766C55.3184 3.66797 55.1914 3.34766 54.9375 3.13672C54.6875 2.92578 54.1973 2.82031 53.4668 2.82031H52.6406V6.00195ZM52.6406 10.0918H53.7598C54.3848 10.0918 54.8457 9.94531 55.1426 9.65234C55.4434 9.35547 55.5938 9 55.5938 8.58594C55.5938 8.28125 55.5117 8.00195 55.3477 7.74805C55.1836 7.49023 54.9297 7.28711 54.5859 7.13867C54.2422 6.98633 53.7031 6.91016 52.9688 6.91016H52.6406V10.0918ZM63.9492 4.45508V11H62.8594V9.56445C62.5078 10.1035 62.1172 10.5078 61.6875 10.7773C61.2578 11.0469 60.8281 11.1816 60.3984 11.1816C60.0156 11.1816 59.6641 11.0801 59.3438 10.877C59.0273 10.6699 58.8066 10.4004 58.6816 10.0684C58.5566 9.73242 58.4941 9.08008 58.4941 8.11133V4.45508H59.584V8.24609C59.584 8.875 59.6133 9.29102 59.6719 9.49414C59.7344 9.69336 59.8457 9.85742 60.0059 9.98633C60.1699 10.1152 60.3457 10.1797 60.5332 10.1797C60.916 10.1797 61.3262 10 61.7637 9.64062C62.2051 9.27734 62.5703 8.82031 62.8594 8.26953V4.45508H63.9492ZM71.2441 10.7363C70.7324 10.9512 70.3613 11.0781 70.1309 11.1172C69.9004 11.1602 69.6777 11.1816 69.4629 11.1816C69.0059 11.1816 68.5879 11.0938 68.209 10.918C67.8301 10.7422 67.543 10.4824 67.3477 10.1387C67.1562 9.79492 67.0605 9.26367 67.0605 8.54492V5.9082H65.4258V5H67.0605V2.36328H68.1504V5H71.0625V5.9082H68.1504V8.52734C68.1504 9.05469 68.2129 9.42773 68.3379 9.64648C68.4629 9.86133 68.6289 10.0195 68.8359 10.1211C69.0469 10.2227 69.2949 10.2734 69.5801 10.2734C70.1074 10.2734 70.6621 10.1074 71.2441 9.77539V10.7363ZM78.4512 10.7363C77.9395 10.9512 77.5684 11.0781 77.3379 11.1172C77.1074 11.1602 76.8848 11.1816 76.6699 11.1816C76.2129 11.1816 75.7949 11.0938 75.416 10.918C75.0371 10.7422 74.75 10.4824 74.5547 10.1387C74.3633 9.79492 74.2676 9.26367 74.2676 8.54492V5.9082H72.6328V5H74.2676V2.36328H75.3574V5H78.2695V5.9082H75.3574V8.52734C75.3574 9.05469 75.4199 9.42773 75.5449 9.64648C75.6699 9.86133 75.8359 10.0195 76.043 10.1211C76.2539 10.2227 76.502 10.2734 76.7871 10.2734C77.3145 10.2734 77.8691 10.1074 78.4512 9.77539V10.7363ZM82.8809 11.1816C81.9434 11.1816 81.1934 10.8555 80.6309 10.2031C80.0684 9.54688 79.7871 8.7207 79.7871 7.72461C79.7871 6.72852 80.0684 5.9043 80.6309 5.25195C81.1934 4.59961 81.9434 4.27344 82.8809 4.27344C83.8145 4.27344 84.5625 4.59961 85.125 5.25195C85.6875 5.9043 85.9688 6.72852 85.9688 7.72461C85.9688 8.7207 85.6875 9.54688 85.125 10.2031C84.5625 10.8555 83.8145 11.1816 82.8809 11.1816ZM82.8809 10.2734C83.4629 10.2734 83.9258 10.0469 84.2695 9.59375C84.6133 9.14062 84.7852 8.51758 84.7852 7.72461C84.7852 6.93555 84.6133 6.31445 84.2695 5.86133C83.9258 5.4082 83.4629 5.18164 82.8809 5.18164C82.2949 5.18164 81.8301 5.4082 81.4863 5.86133C81.1426 6.31445 80.9707 6.93555 80.9707 7.72461C80.9707 8.51758 81.1426 9.14062 81.4863 9.59375C81.8301 10.0469 82.2949 10.2734 82.8809 10.2734ZM87.3926 11V4.45508H88.4824V5.88477C88.7949 5.38086 89.1719 4.98633 89.6133 4.70117C90.0547 4.41602 90.4961 4.27344 90.9375 4.27344C91.3242 4.27344 91.6758 4.37695 91.9922 4.58398C92.3086 4.78711 92.5293 5.05469 92.6543 5.38672C92.7832 5.71875 92.8477 6.37109 92.8477 7.34375V11H91.7578V7.20898C91.7578 6.58008 91.7266 6.16602 91.6641 5.9668C91.6055 5.76367 91.4941 5.59766 91.3301 5.46875C91.1699 5.33984 90.9941 5.27539 90.8027 5.27539C90.4199 5.27539 90.0078 5.45703 89.5664 5.82031C89.1289 6.18359 88.7676 6.63867 88.4824 7.18555V11H87.3926ZM159.562 33V32.0918H161.561V24.8203H159.562V23.9062H164.742V24.8203H162.744V32.0918H164.742V33H159.562ZM166.67 33V26.4551H167.76V27.8848C168.072 27.3809 168.449 26.9863 168.891 26.7012C169.332 26.416 169.773 26.2734 170.215 26.2734C170.602 26.2734 170.953 26.377 171.27 26.584C171.586 26.7871 171.807 27.0547 171.932 27.3867C172.061 27.7188 172.125 28.3711 172.125 29.3438V33H171.035V29.209C171.035 28.5801 171.004 28.166 170.941 27.9668C170.883 27.7637 170.771 27.5977 170.607 27.4688C170.447 27.3398 170.271 27.2754 170.08 27.2754C169.697 27.2754 169.285 27.457 168.844 27.8203C168.406 28.1836 168.045 28.6387 167.76 29.1855V33H166.67ZM179.385 32.8125C178.654 33.0586 177.959 33.1816 177.299 33.1816C176.643 33.1816 176.059 33.0312 175.547 32.7305C175.039 32.4258 174.643 32.0156 174.357 31.5C174.072 30.9805 173.93 30.3906 173.93 29.7305C173.93 28.7383 174.252 27.9141 174.896 27.2578C175.545 26.6016 176.326 26.2734 177.24 26.2734C177.916 26.2734 178.631 26.4004 179.385 26.6543V27.7031C178.623 27.3555 177.941 27.1816 177.34 27.1816C176.941 27.1816 176.566 27.2812 176.215 27.4805C175.863 27.6758 175.592 27.9824 175.4 28.4004C175.209 28.8184 175.113 29.248 175.113 29.6895C175.113 30.2793 175.297 30.8418 175.664 31.377C176.035 31.9121 176.615 32.1797 177.404 32.1797C177.643 32.1797 177.877 32.1641 178.107 32.1328C178.338 32.0977 178.764 31.9746 179.385 31.7637V32.8125ZM181.641 33V26.4551H182.73V27.8848C183.07 27.3457 183.459 26.9434 183.896 26.6777C184.338 26.4082 184.828 26.2734 185.367 26.2734C185.762 26.2734 186.156 26.334 186.551 26.4551V28.8164H185.502V27.3223C185.318 27.291 185.174 27.2754 185.068 27.2754C184.662 27.2754 184.264 27.4355 183.873 27.7559C183.482 28.0762 183.102 28.5566 182.73 29.1973V33H181.641ZM193.734 32.5664C192.863 32.9805 192.039 33.1875 191.262 33.1875C190.672 33.1875 190.145 33.041 189.68 32.748C189.215 32.4551 188.842 32.0371 188.561 31.4941C188.283 30.9473 188.145 30.3633 188.145 29.7422C188.145 29.1445 188.277 28.5703 188.543 28.0195C188.809 27.4688 189.18 27.041 189.656 26.7363C190.133 26.4277 190.664 26.2734 191.25 26.2734C192.027 26.2734 192.65 26.5508 193.119 27.1055C193.592 27.6602 193.828 28.5156 193.828 29.6719V29.9062H189.316C189.316 30.3594 189.41 30.7734 189.598 31.1484C189.789 31.5234 190.039 31.8047 190.348 31.9922C190.656 32.1797 191.008 32.2734 191.402 32.2734C192.105 32.2734 192.883 32.0391 193.734 31.5703V32.5664ZM189.381 29.0918H192.645V28.9336C192.645 28.3984 192.514 27.9727 192.252 27.6562C191.99 27.3398 191.641 27.1816 191.203 27.1816C190.762 27.1816 190.379 27.3438 190.055 27.668C189.734 27.9883 189.51 28.4629 189.381 29.0918ZM195.006 33V26.4551H195.961V27.9551C196.262 27.3184 196.541 26.8789 196.799 26.6367C197.061 26.3945 197.324 26.2734 197.59 26.2734C197.906 26.2734 198.16 26.3984 198.352 26.6484C198.547 26.8945 198.645 27.2461 198.645 27.7031V28.0547C198.773 27.6562 198.928 27.334 199.107 27.0879C199.291 26.8379 199.48 26.6406 199.676 26.4961C199.871 26.3477 200.096 26.2734 200.35 26.2734C200.631 26.2734 200.871 26.3926 201.07 26.6309C201.27 26.8691 201.369 27.3438 201.369 28.0547V33H200.414V28.5293C200.414 28.1621 200.402 27.9121 200.379 27.7793C200.355 27.6426 200.309 27.5391 200.238 27.4688C200.168 27.3984 200.092 27.3633 200.01 27.3633C199.807 27.3633 199.588 27.5195 199.354 27.832C199.123 28.1406 198.887 28.6543 198.645 29.373V33H197.73V28.5352C197.73 27.957 197.674 27.6172 197.561 27.5156C197.447 27.4141 197.346 27.3633 197.256 27.3633C197.057 27.3633 196.842 27.5371 196.611 27.8848C196.385 28.2324 196.168 28.6777 195.961 29.2207V33H195.006ZM208.148 32.5664C207.277 32.9805 206.453 33.1875 205.676 33.1875C205.086 33.1875 204.559 33.041 204.094 32.748C203.629 32.4551 203.256 32.0371 202.975 31.4941C202.697 30.9473 202.559 30.3633 202.559 29.7422C202.559 29.1445 202.691 28.5703 202.957 28.0195C203.223 27.4688 203.594 27.041 204.07 26.7363C204.547 26.4277 205.078 26.2734 205.664 26.2734C206.441 26.2734 207.064 26.5508 207.533 27.1055C208.006 27.6602 208.242 28.5156 208.242 29.6719V29.9062H203.73C203.73 30.3594 203.824 30.7734 204.012 31.1484C204.203 31.5234 204.453 31.8047 204.762 31.9922C205.07 32.1797 205.422 32.2734 205.816 32.2734C206.52 32.2734 207.297 32.0391 208.148 31.5703V32.5664ZM203.795 29.0918H207.059V28.9336C207.059 28.3984 206.928 27.9727 206.666 27.6562C206.404 27.3398 206.055 27.1816 205.617 27.1816C205.176 27.1816 204.793 27.3438 204.469 27.668C204.148 27.9883 203.924 28.4629 203.795 29.0918ZM209.912 33V26.4551H211.002V27.8848C211.314 27.3809 211.691 26.9863 212.133 26.7012C212.574 26.416 213.016 26.2734 213.457 26.2734C213.844 26.2734 214.195 26.377 214.512 26.584C214.828 26.7871 215.049 27.0547 215.174 27.3867C215.303 27.7188 215.367 28.3711 215.367 29.3438V33H214.277V29.209C214.277 28.5801 214.246 28.166 214.184 27.9668C214.125 27.7637 214.014 27.5977 213.85 27.4688C213.689 27.3398 213.514 27.2754 213.322 27.2754C212.939 27.2754 212.527 27.457 212.086 27.8203C211.648 28.1836 211.287 28.6387 211.002 29.1855V33H209.912ZM222.592 32.7363C222.08 32.9512 221.709 33.0781 221.479 33.1172C221.248 33.1602 221.025 33.1816 220.811 33.1816C220.354 33.1816 219.936 33.0938 219.557 32.918C219.178 32.7422 218.891 32.4824 218.695 32.1387C218.504 31.7949 218.408 31.2637 218.408 30.5449V27.9082H216.773V27H218.408V24.3633H219.498V27H222.41V27.9082H219.498V30.5273C219.498 31.0547 219.561 31.4277 219.686 31.6465C219.811 31.8613 219.977 32.0195 220.184 32.1211C220.395 32.2227 220.643 32.2734 220.928 32.2734C221.455 32.2734 222.01 32.1074 222.592 31.7754V32.7363ZM37.043 143V142.092H39.041V134.82H37.043V133.906H42.2227V134.82H40.2246V142.092H42.2227V143H37.043ZM44.1504 143V136.455H45.2402V137.885C45.5527 137.381 45.9297 136.986 46.3711 136.701C46.8125 136.416 47.2539 136.273 47.6953 136.273C48.082 136.273 48.4336 136.377 48.75 136.584C49.0664 136.787 49.2871 137.055 49.4121 137.387C49.541 137.719 49.6055 138.371 49.6055 139.344V143H48.5156V139.209C48.5156 138.58 48.4844 138.166 48.4219 137.967C48.3633 137.764 48.252 137.598 48.0879 137.469C47.9277 137.34 47.752 137.275 47.5605 137.275C47.1777 137.275 46.7656 137.457 46.3242 137.82C45.8867 138.184 45.5254 138.639 45.2402 139.186V143H44.1504ZM56.8652 142.812C56.1348 143.059 55.4395 143.182 54.7793 143.182C54.123 143.182 53.5391 143.031 53.0273 142.73C52.5195 142.426 52.123 142.016 51.8379 141.5C51.5527 140.98 51.4102 140.391 51.4102 139.73C51.4102 138.738 51.7324 137.914 52.377 137.258C53.0254 136.602 53.8066 136.273 54.7207 136.273C55.3965 136.273 56.1113 136.4 56.8652 136.654V137.703C56.1035 137.355 55.4219 137.182 54.8203 137.182C54.4219 137.182 54.0469 137.281 53.6953 137.48C53.3438 137.676 53.0723 137.982 52.8809 138.4C52.6895 138.818 52.5938 139.248 52.5938 139.689C52.5938 140.279 52.7773 140.842 53.1445 141.377C53.5156 141.912 54.0957 142.18 54.8848 142.18C55.123 142.18 55.3574 142.164 55.5879 142.133C55.8184 142.098 56.2441 141.975 56.8652 141.764V142.812ZM59.1211 143V136.455H60.2109V137.885C60.5508 137.346 60.9395 136.943 61.377 136.678C61.8184 136.408 62.3086 136.273 62.8477 136.273C63.2422 136.273 63.6367 136.334 64.0312 136.455V138.816H62.9824V137.322C62.7988 137.291 62.6543 137.275 62.5488 137.275C62.1426 137.275 61.7441 137.436 61.3535 137.756C60.9629 138.076 60.582 138.557 60.2109 139.197V143H59.1211ZM71.2148 142.566C70.3438 142.98 69.5195 143.188 68.7422 143.188C68.1523 143.188 67.625 143.041 67.1602 142.748C66.6953 142.455 66.3223 142.037 66.041 141.494C65.7637 140.947 65.625 140.363 65.625 139.742C65.625 139.145 65.7578 138.57 66.0234 138.02C66.2891 137.469 66.6602 137.041 67.1367 136.736C67.6133 136.428 68.1445 136.273 68.7305 136.273C69.5078 136.273 70.1309 136.551 70.5996 137.105C71.0723 137.66 71.3086 138.516 71.3086 139.672V139.906H66.7969C66.7969 140.359 66.8906 140.773 67.0781 141.148C67.2695 141.523 67.5195 141.805 67.8281 141.992C68.1367 142.18 68.4883 142.273 68.8828 142.273C69.5859 142.273 70.3633 142.039 71.2148 141.57V142.566ZM66.8613 139.092H70.125V138.934C70.125 138.398 69.9941 137.973 69.7324 137.656C69.4707 137.34 69.1211 137.182 68.6836 137.182C68.2422 137.182 67.8594 137.344 67.5352 137.668C67.2148 137.988 66.9902 138.463 66.8613 139.092ZM72.4863 143V136.455H73.4414V137.955C73.7422 137.318 74.0215 136.879 74.2793 136.637C74.541 136.395 74.8047 136.273 75.0703 136.273C75.3867 136.273 75.6406 136.398 75.832 136.648C76.0273 136.895 76.125 137.246 76.125 137.703V138.055C76.2539 137.656 76.4082 137.334 76.5879 137.088C76.7715 136.838 76.9609 136.641 77.1562 136.496C77.3516 136.348 77.5762 136.273 77.8301 136.273C78.1113 136.273 78.3516 136.393 78.5508 136.631C78.75 136.869 78.8496 137.344 78.8496 138.055V143H77.8945V138.529C77.8945 138.162 77.8828 137.912 77.8594 137.779C77.8359 137.643 77.7891 137.539 77.7188 137.469C77.6484 137.398 77.5723 137.363 77.4902 137.363C77.2871 137.363 77.0684 137.52 76.834 137.832C76.6035 138.141 76.3672 138.654 76.125 139.373V143H75.2109V138.535C75.2109 137.957 75.1543 137.617 75.041 137.516C74.9277 137.414 74.8262 137.363 74.7363 137.363C74.5371 137.363 74.3223 137.537 74.0918 137.885C73.8652 138.232 73.6484 138.678 73.4414 139.221V143H72.4863ZM85.6289 142.566C84.7578 142.98 83.9336 143.188 83.1562 143.188C82.5664 143.188 82.0391 143.041 81.5742 142.748C81.1094 142.455 80.7363 142.037 80.4551 141.494C80.1777 140.947 80.0391 140.363 80.0391 139.742C80.0391 139.145 80.1719 138.57 80.4375 138.02C80.7031 137.469 81.0742 137.041 81.5508 136.736C82.0273 136.428 82.5586 136.273 83.1445 136.273C83.9219 136.273 84.5449 136.551 85.0137 137.105C85.4863 137.66 85.7227 138.516 85.7227 139.672V139.906H81.2109C81.2109 140.359 81.3047 140.773 81.4922 141.148C81.6836 141.523 81.9336 141.805 82.2422 141.992C82.5508 142.18 82.9023 142.273 83.2969 142.273C84 142.273 84.7773 142.039 85.6289 141.57V142.566ZM81.2754 139.092H84.5391V138.934C84.5391 138.398 84.4082 137.973 84.1465 137.656C83.8848 137.34 83.5352 137.182 83.0977 137.182C82.6562 137.182 82.2734 137.344 81.9492 137.668C81.6289 137.988 81.4043 138.463 81.2754 139.092ZM87.3926 143V136.455H88.4824V137.885C88.7949 137.381 89.1719 136.986 89.6133 136.701C90.0547 136.416 90.4961 136.273 90.9375 136.273C91.3242 136.273 91.6758 136.377 91.9922 136.584C92.3086 136.787 92.5293 137.055 92.6543 137.387C92.7832 137.719 92.8477 138.371 92.8477 139.344V143H91.7578V139.209C91.7578 138.58 91.7266 138.166 91.6641 137.967C91.6055 137.764 91.4941 137.598 91.3301 137.469C91.1699 137.34 90.9941 137.275 90.8027 137.275C90.4199 137.275 90.0078 137.457 89.5664 137.82C89.1289 138.184 88.7676 138.639 88.4824 139.186V143H87.3926ZM100.072 142.736C99.5605 142.951 99.1895 143.078 98.959 143.117C98.7285 143.16 98.5059 143.182 98.291 143.182C97.834 143.182 97.416 143.094 97.0371 142.918C96.6582 142.742 96.3711 142.482 96.1758 142.139C95.9844 141.795 95.8887 141.264 95.8887 140.545V137.908H94.2539V137H95.8887V134.363H96.9785V137H99.8906V137.908H96.9785V140.527C96.9785 141.055 97.041 141.428 97.166 141.646C97.291 141.861 97.457 142.02 97.6641 142.121C97.875 142.223 98.123 142.273 98.4082 142.273C98.9355 142.273 99.4902 142.107 100.072 141.775V142.736Z" fill="#DCDCAE"/>
<path d="M99.9727 13.1797C98.8906 13.1133 97.9785 12.8066 97.2363 12.2598C96.4941 11.7168 95.9004 10.9824 95.4551 10.0566C95.0137 9.13086 94.793 8.20312 94.793 7.27344C94.793 6.34375 95.0137 5.41602 95.4551 4.49023C95.9004 3.56445 96.4941 2.83008 97.2363 2.28711C97.9785 1.74023 98.8906 1.43164 99.9727 1.36133V2.27539C99.1562 2.34961 98.4531 2.625 97.8633 3.10156C97.2773 3.57422 96.8164 4.17773 96.4805 4.91211C96.1445 5.64648 95.9766 6.43359 95.9766 7.27344C95.9766 8.11328 96.1445 8.90039 96.4805 9.63477C96.8164 10.3691 97.2773 10.9727 97.8633 11.4453C98.4531 11.918 99.1562 12.1934 99.9727 12.2715V13.1797ZM238.752 1.36133C239.834 1.43164 240.746 1.74023 241.488 2.28711C242.23 2.83008 242.822 3.56445 243.264 4.49023C243.709 5.41602 243.932 6.34375 243.932 7.27344C243.932 8.20312 243.709 9.13086 243.264 10.0566C242.822 10.9824 242.23 11.7168 241.488 12.2598C240.746 12.8066 239.834 13.1133 238.752 13.1797V12.2715C239.568 12.1934 240.27 11.918 240.855 11.4453C241.445 10.9727 241.908 10.3691 242.244 9.63477C242.584 8.90039 242.754 8.11328 242.754 7.27344C242.754 6.43359 242.584 5.64648 242.244 4.91211C241.908 4.17773 241.445 3.57422 240.855 3.10156C240.27 2.625 239.568 2.34961 238.752 2.27539V1.36133ZM259.025 6.36523V7.27344H252.662V6.36523H259.025ZM259.025 8.41016V9.31836H252.662V8.41016H259.025ZM266.232 7.81836L259.869 11V9.98633L264.223 7.82422L259.869 5.63867V4.63672L266.232 7.81836ZM154.553 29.2734C154.916 29.4648 155.182 29.6523 155.35 29.8359C155.521 30.0195 155.648 30.209 155.73 30.4043C155.816 30.5957 155.859 30.8164 155.859 31.0664C155.859 31.2891 155.82 31.5801 155.742 31.9395L155.596 32.6074C155.518 32.9707 155.479 33.2402 155.479 33.416C155.479 33.6543 155.57 33.8555 155.754 34.0195C155.941 34.1875 156.324 34.2715 156.902 34.2715H157.811V35.1797H156.891C155.82 35.1797 155.131 35.0078 154.822 34.6641C154.514 34.3203 154.359 33.9316 154.359 33.498C154.359 33.2676 154.389 33.0195 154.447 32.7539L154.553 32.2852L154.652 31.7754L154.723 31.4648C154.75 31.3203 154.764 31.1797 154.764 31.043C154.764 30.6797 154.641 30.3691 154.395 30.1113C154.152 29.8535 153.723 29.7246 153.105 29.7246H152.584V28.8164H153.105C153.715 28.8164 154.143 28.6895 154.389 28.4355C154.639 28.1816 154.764 27.8652 154.764 27.4863C154.764 27.3457 154.75 27.209 154.723 27.0762L154.652 26.7715L154.553 26.2617L154.447 25.793C154.389 25.5234 154.359 25.2734 154.359 25.043C154.359 24.6133 154.514 24.2266 154.822 23.8828C155.131 23.5352 155.82 23.3613 156.891 23.3613H157.811V24.2754H156.902C156.328 24.2754 155.947 24.3594 155.76 24.5273C155.572 24.6914 155.479 24.8945 155.479 25.1367C155.479 25.3086 155.518 25.5762 155.596 25.9395L155.742 26.6074C155.82 26.9668 155.859 27.2578 155.859 27.4805C155.859 27.7305 155.816 27.9531 155.73 28.1484C155.648 28.3398 155.521 28.5273 155.35 28.7109C155.182 28.8945 154.916 29.082 154.553 29.2734ZM227.414 29.2734C227.051 29.082 226.783 28.8945 226.611 28.7109C226.443 28.5273 226.318 28.3398 226.236 28.1484C226.154 27.9531 226.113 27.7305 226.113 27.4805C226.113 27.2578 226.15 26.9668 226.225 26.6074L226.371 25.9395C226.449 25.5762 226.488 25.3066 226.488 25.1309C226.488 24.8926 226.395 24.6914 226.207 24.5273C226.023 24.3594 225.643 24.2754 225.064 24.2754H224.156V23.3613H225.076C226.146 23.3613 226.836 23.5352 227.145 23.8828C227.457 24.2266 227.613 24.6133 227.613 25.043C227.613 25.2773 227.582 25.5273 227.52 25.793L227.414 26.2617L227.314 26.7715L227.244 27.0762C227.217 27.2246 227.203 27.3672 227.203 27.5039C227.203 27.8633 227.324 28.1719 227.566 28.4297C227.812 28.6875 228.244 28.8164 228.861 28.8164H229.383V29.7246H228.861C228.252 29.7246 227.822 29.8535 227.572 30.1113C227.326 30.3652 227.203 30.6816 227.203 31.0605C227.203 31.1973 227.217 31.332 227.244 31.4648L227.314 31.7754L227.414 32.2852L227.52 32.7539C227.582 33.0234 227.613 33.2734 227.613 33.5039C227.613 33.9375 227.457 34.3242 227.145 34.6641C226.836 35.0078 226.146 35.1797 225.076 35.1797H224.156V34.2715H225.064C225.643 34.2715 226.023 34.1875 226.207 34.0195C226.395 33.8555 226.488 33.6523 226.488 33.4102C226.488 33.2383 226.449 32.9707 226.371 32.6074L226.225 31.9395C226.15 31.5801 226.113 31.2891 226.113 31.0664C226.113 30.8164 226.154 30.5957 226.236 30.4043C226.318 30.209 226.443 30.0195 226.611 29.8359C226.783 29.6523 227.051 29.4648 227.414 29.2734ZM118.518 51.2734C118.881 51.4648 119.146 51.6523 119.314 51.8359C119.486 52.0195 119.613 52.209 119.695 52.4043C119.781 52.5957 119.824 52.8164 119.824 53.0664C119.824 53.2891 119.785 53.5801 119.707 53.9395L119.561 54.6074C119.482 54.9707 119.443 55.2402 119.443 55.416C119.443 55.6543 119.535 55.8555 119.719 56.0195C119.906 56.1875 120.289 56.2715 120.867 56.2715H121.775V57.1797H120.855C119.785 57.1797 119.096 57.0078 118.787 56.6641C118.479 56.3203 118.324 55.9316 118.324 55.498C118.324 55.2676 118.354 55.0195 118.412 54.7539L118.518 54.2852L118.617 53.7754L118.688 53.4648C118.715 53.3203 118.729 53.1797 118.729 53.043C118.729 52.6797 118.605 52.3691 118.359 52.1113C118.117 51.8535 117.688 51.7246 117.07 51.7246H116.549V50.8164H117.07C117.68 50.8164 118.107 50.6895 118.354 50.4355C118.604 50.1816 118.729 49.8652 118.729 49.4863C118.729 49.3457 118.715 49.209 118.688 49.0762L118.617 48.7715L118.518 48.2617L118.412 47.793C118.354 47.5234 118.324 47.2734 118.324 47.043C118.324 46.6133 118.479 46.2266 118.787 45.8828C119.096 45.5352 119.785 45.3613 120.855 45.3613H121.775V46.2754H120.867C120.293 46.2754 119.912 46.3594 119.725 46.5273C119.537 46.6914 119.443 46.8945 119.443 47.1367C119.443 47.3086 119.482 47.5762 119.561 47.9395L119.707 48.6074C119.785 48.9668 119.824 49.2578 119.824 49.4805C119.824 49.7305 119.781 49.9531 119.695 50.1484C119.613 50.3398 119.486 50.5273 119.314 50.7109C119.146 50.8945 118.881 51.082 118.518 51.2734ZM190.98 55.2754C190.719 55.2754 190.494 55.1816 190.307 54.9941C190.119 54.8066 190.025 54.582 190.025 54.3203C190.025 54.0547 190.119 53.8301 190.307 53.6465C190.498 53.459 190.723 53.3652 190.98 53.3652C191.238 53.3652 191.461 53.459 191.648 53.6465C191.84 53.8301 191.936 54.0547 191.936 54.3203C191.936 54.582 191.842 54.8066 191.654 54.9941C191.467 55.1816 191.242 55.2754 190.98 55.2754ZM200.965 54.8945C200.285 55.1484 199.676 55.2754 199.137 55.2754C198.426 55.2754 197.771 55.0859 197.174 54.707C196.576 54.3242 196.111 53.7578 195.779 53.0078C195.447 52.2539 195.281 51.4023 195.281 50.4531C195.281 49.5117 195.445 48.666 195.773 47.916C196.102 47.166 196.564 46.5977 197.162 46.2109C197.76 45.8242 198.418 45.6309 199.137 45.6309C199.676 45.6309 200.285 45.7578 200.965 46.0117V47.0898C200.336 46.7266 199.711 46.5449 199.09 46.5449C198.621 46.5449 198.191 46.7051 197.801 47.0254C197.414 47.3457 197.102 47.8164 196.863 48.4375C196.625 49.0547 196.506 49.7266 196.506 50.4531C196.506 51.1914 196.629 51.873 196.875 52.498C197.121 53.123 197.436 53.5918 197.818 53.9043C198.201 54.2129 198.625 54.3672 199.09 54.3672C199.707 54.3672 200.332 54.1855 200.965 53.8223V54.8945ZM205.4 55.1816C204.463 55.1816 203.713 54.8555 203.15 54.2031C202.588 53.5469 202.307 52.7207 202.307 51.7246C202.307 50.7285 202.588 49.9043 203.15 49.252C203.713 48.5996 204.463 48.2734 205.4 48.2734C206.334 48.2734 207.082 48.5996 207.645 49.252C208.207 49.9043 208.488 50.7285 208.488 51.7246C208.488 52.7207 208.207 53.5469 207.645 54.2031C207.082 54.8555 206.334 55.1816 205.4 55.1816ZM205.4 54.2734C205.982 54.2734 206.445 54.0469 206.789 53.5938C207.133 53.1406 207.305 52.5176 207.305 51.7246C207.305 50.9355 207.133 50.3145 206.789 49.8613C206.445 49.4082 205.982 49.1816 205.4 49.1816C204.814 49.1816 204.35 49.4082 204.006 49.8613C203.662 50.3145 203.49 50.9355 203.49 51.7246C203.49 52.5176 203.662 53.1406 204.006 53.5938C204.35 54.0469 204.814 54.2734 205.4 54.2734ZM215.297 48.4551V55H214.207V53.5645C213.855 54.1035 213.465 54.5078 213.035 54.7773C212.605 55.0469 212.176 55.1816 211.746 55.1816C211.363 55.1816 211.012 55.0801 210.691 54.877C210.375 54.6699 210.154 54.4004 210.029 54.0684C209.904 53.7324 209.842 53.0801 209.842 52.1113V48.4551H210.932V52.2461C210.932 52.875 210.961 53.291 211.02 53.4941C211.082 53.6934 211.193 53.8574 211.354 53.9863C211.518 54.1152 211.693 54.1797 211.881 54.1797C212.264 54.1797 212.674 54 213.111 53.6406C213.553 53.2773 213.918 52.8203 214.207 52.2695V48.4551H215.297ZM217.119 55V48.4551H218.209V49.8848C218.521 49.3809 218.898 48.9863 219.34 48.7012C219.781 48.416 220.223 48.2734 220.664 48.2734C221.051 48.2734 221.402 48.377 221.719 48.584C222.035 48.7871 222.256 49.0547 222.381 49.3867C222.51 49.7188 222.574 50.3711 222.574 51.3438V55H221.484V51.209C221.484 50.5801 221.453 50.166 221.391 49.9668C221.332 49.7637 221.221 49.5977 221.057 49.4688C220.896 49.3398 220.721 49.2754 220.529 49.2754C220.146 49.2754 219.734 49.457 219.293 49.8203C218.855 50.1836 218.494 50.6387 218.209 51.1855V55H217.119ZM229.799 54.7363C229.287 54.9512 228.916 55.0781 228.686 55.1172C228.455 55.1602 228.232 55.1816 228.018 55.1816C227.561 55.1816 227.143 55.0938 226.764 54.918C226.385 54.7422 226.098 54.4824 225.902 54.1387C225.711 53.7949 225.615 53.2637 225.615 52.5449V49.9082H223.98V49H225.615V46.3633H226.705V49H229.617V49.9082H226.705V52.5273C226.705 53.0547 226.768 53.4277 226.893 53.6465C227.018 53.8613 227.184 54.0195 227.391 54.1211C227.602 54.2227 227.85 54.2734 228.135 54.2734C228.662 54.2734 229.217 54.1074 229.799 53.7754V54.7363ZM234.621 51.2734C234.258 51.082 233.99 50.8945 233.818 50.7109C233.65 50.5273 233.525 50.3398 233.443 50.1484C233.361 49.9531 233.32 49.7305 233.32 49.4805C233.32 49.2578 233.357 48.9668 233.432 48.6074L233.578 47.9395C233.656 47.5762 233.695 47.3066 233.695 47.1309C233.695 46.8926 233.602 46.6914 233.414 46.5273C233.23 46.3594 232.85 46.2754 232.271 46.2754H231.363V45.3613H232.283C233.354 45.3613 234.043 45.5352 234.352 45.8828C234.664 46.2266 234.82 46.6133 234.82 47.043C234.82 47.2773 234.789 47.5273 234.727 47.793L234.621 48.2617L234.521 48.7715L234.451 49.0762C234.424 49.2246 234.41 49.3672 234.41 49.5039C234.41 49.8633 234.531 50.1719 234.773 50.4297C235.02 50.6875 235.451 50.8164 236.068 50.8164H236.59V51.7246H236.068C235.459 51.7246 235.029 51.8535 234.779 52.1113C234.533 52.3652 234.41 52.6816 234.41 53.0605C234.41 53.1973 234.424 53.332 234.451 53.4648L234.521 53.7754L234.621 54.2852L234.727 54.7539C234.789 55.0234 234.82 55.2734 234.82 55.5039C234.82 55.9375 234.664 56.3242 234.352 56.6641C234.043 57.0078 233.354 57.1797 232.283 57.1797H231.363V56.2715H232.271C232.85 56.2715 233.23 56.1875 233.414 56.0195C233.602 55.8555 233.695 55.6523 233.695 55.4102C233.695 55.2383 233.656 54.9707 233.578 54.6074L233.432 53.9395C233.357 53.5801 233.32 53.2891 233.32 53.0664C233.32 52.8164 233.361 52.5957 233.443 52.4043C233.525 52.209 233.65 52.0195 233.818 51.8359C233.99 51.6523 234.258 51.4648 234.621 51.2734ZM24.1055 101.543V100.816C24.3867 100.742 24.5996 100.635 24.7441 100.494C24.8926 100.357 25.0098 100.182 25.0957 99.9668C25.1855 99.7559 25.2305 99.5 25.2305 99.1992C24.8672 99.1992 24.5996 99.0977 24.4277 98.8945C24.2559 98.6875 24.1699 98.4668 24.1699 98.2324C24.1699 97.9629 24.2656 97.7363 24.457 97.5527C24.6484 97.3652 24.8711 97.2715 25.125 97.2715C25.4531 97.2715 25.7363 97.4141 25.9746 97.6992C26.2129 97.9805 26.332 98.3672 26.332 98.8594C26.332 99.2891 26.2383 99.6934 26.0508 100.072C25.8633 100.455 25.6074 100.781 25.2832 101.051C24.9629 101.32 24.5703 101.484 24.1055 101.543ZM25.125 94.1836C24.8633 94.1836 24.6387 94.0898 24.4512 93.9023C24.2637 93.7148 24.1699 93.4902 24.1699 93.2285C24.1699 92.9629 24.2637 92.7383 24.4512 92.5547C24.6426 92.3672 24.8672 92.2734 25.125 92.2734C25.3828 92.2734 25.6055 92.3672 25.793 92.5547C25.9844 92.7383 26.0801 92.9629 26.0801 93.2285C26.0801 93.4902 25.9863 93.7148 25.7988 93.9023C25.6113 94.0898 25.3867 94.1836 25.125 94.1836ZM3.20508 161.273C3.56836 161.465 3.83398 161.652 4.00195 161.836C4.17383 162.02 4.30078 162.209 4.38281 162.404C4.46875 162.596 4.51172 162.816 4.51172 163.066C4.51172 163.289 4.47266 163.58 4.39453 163.939L4.24805 164.607C4.16992 164.971 4.13086 165.24 4.13086 165.416C4.13086 165.654 4.22266 165.855 4.40625 166.02C4.59375 166.188 4.97656 166.271 5.55469 166.271H6.46289V167.18H5.54297C4.47266 167.18 3.7832 167.008 3.47461 166.664C3.16602 166.32 3.01172 165.932 3.01172 165.498C3.01172 165.268 3.04102 165.02 3.09961 164.754L3.20508 164.285L3.30469 163.775L3.375 163.465C3.40234 163.32 3.41602 163.18 3.41602 163.043C3.41602 162.68 3.29297 162.369 3.04688 162.111C2.80469 161.854 2.375 161.725 1.75781 161.725H1.23633V160.816H1.75781C2.36719 160.816 2.79492 160.689 3.04102 160.436C3.29102 160.182 3.41602 159.865 3.41602 159.486C3.41602 159.346 3.40234 159.209 3.375 159.076L3.30469 158.771L3.20508 158.262L3.09961 157.793C3.04102 157.523 3.01172 157.273 3.01172 157.043C3.01172 156.613 3.16602 156.227 3.47461 155.883C3.7832 155.535 4.47266 155.361 5.54297 155.361H6.46289V156.275H5.55469C4.98047 156.275 4.59961 156.359 4.41211 156.527C4.22461 156.691 4.13086 156.895 4.13086 157.137C4.13086 157.309 4.16992 157.576 4.24805 157.939L4.39453 158.607C4.47266 158.967 4.51172 159.258 4.51172 159.48C4.51172 159.73 4.46875 159.953 4.38281 160.148C4.30078 160.34 4.17383 160.527 4.00195 160.711C3.83398 160.895 3.56836 161.082 3.20508 161.273ZM82.875 187.275C82.6133 187.275 82.3887 187.182 82.2012 186.994C82.0137 186.807 81.9199 186.582 81.9199 186.32C81.9199 186.055 82.0137 185.83 82.2012 185.646C82.3926 185.459 82.6172 185.365 82.875 185.365C83.1328 185.365 83.3555 185.459 83.543 185.646C83.7344 185.83 83.8301 186.055 83.8301 186.32C83.8301 186.582 83.7363 186.807 83.5488 186.994C83.3613 187.182 83.1367 187.275 82.875 187.275ZM92.3613 177.906H93.498L90.6973 187H89.4961L86.6777 177.906H87.9258L89.9004 184.258L90.1582 185.184L90.3867 184.264L92.3613 177.906ZM96.4336 187V181.363H94.6172V180.455H97.5234V186.092H99.3457V187H96.4336ZM96.252 178.094C96.252 177.848 96.3359 177.664 96.5039 177.543C96.6719 177.422 96.8301 177.361 96.9785 177.361C97.1309 177.361 97.291 177.422 97.459 177.543C97.627 177.664 97.7109 177.848 97.7109 178.094C97.7109 178.336 97.627 178.518 97.459 178.639C97.291 178.76 97.1309 178.82 96.9785 178.82C96.8301 178.82 96.6719 178.76 96.5039 178.639C96.3359 178.518 96.252 178.336 96.252 178.094ZM107.25 186.566C106.379 186.98 105.555 187.188 104.777 187.188C104.188 187.188 103.66 187.041 103.195 186.748C102.73 186.455 102.357 186.037 102.076 185.494C101.799 184.947 101.66 184.363 101.66 183.742C101.66 183.145 101.793 182.57 102.059 182.02C102.324 181.469 102.695 181.041 103.172 180.736C103.648 180.428 104.18 180.273 104.766 180.273C105.543 180.273 106.166 180.551 106.635 181.105C107.107 181.66 107.344 182.516 107.344 183.672V183.906H102.832C102.832 184.359 102.926 184.773 103.113 185.148C103.305 185.523 103.555 185.805 103.863 185.992C104.172 186.18 104.523 186.273 104.918 186.273C105.621 186.273 106.398 186.039 107.25 185.57V186.566ZM102.896 183.092H106.16V182.934C106.16 182.398 106.029 181.973 105.768 181.656C105.506 181.34 105.156 181.182 104.719 181.182C104.277 181.182 103.895 181.344 103.57 181.668C103.25 181.988 103.025 182.463 102.896 183.092ZM109.289 187L108.223 180.455H109.236L109.857 184.439L110.021 185.365L110.18 184.439L111.223 180.455H112.201L113.379 184.439L113.584 185.365L113.719 184.439L114.346 180.455H115.184L114.123 187H113.104L111.85 182.787L111.65 181.861H111.621L111.439 182.781L110.35 187H109.289ZM116.596 187H115.641V177.906H116.83L118.928 183.895L121.025 177.906H122.186V187H121.096V181.205L121.125 180.408H121.096L120.838 181.205L119.432 185.184H118.248L116.824 181.205L116.596 180.408H116.566L116.596 181.205V187ZM126.123 187.182C125.186 187.182 124.436 186.855 123.873 186.203C123.311 185.547 123.029 184.721 123.029 183.725C123.029 182.729 123.311 181.904 123.873 181.252C124.436 180.6 125.186 180.273 126.123 180.273C127.057 180.273 127.805 180.6 128.367 181.252C128.93 181.904 129.211 182.729 129.211 183.725C129.211 184.721 128.93 185.547 128.367 186.203C127.805 186.855 127.057 187.182 126.123 187.182ZM126.123 186.273C126.705 186.273 127.168 186.047 127.512 185.594C127.855 185.141 128.027 184.518 128.027 183.725C128.027 182.936 127.855 182.314 127.512 181.861C127.168 181.408 126.705 181.182 126.123 181.182C125.537 181.182 125.072 181.408 124.729 181.861C124.385 182.314 124.213 182.936 124.213 183.725C124.213 184.518 124.385 185.141 124.729 185.594C125.072 186.047 125.537 186.273 126.123 186.273ZM135.006 185.529C134.674 186.076 134.273 186.488 133.805 186.766C133.34 187.043 132.912 187.182 132.521 187.182C131.975 187.182 131.482 186.945 131.045 186.473C130.611 186 130.395 185.283 130.395 184.322C130.395 183.564 130.539 182.889 130.828 182.295C131.117 181.697 131.504 181.227 131.988 180.883C132.473 180.535 133.072 180.361 133.787 180.361C133.994 180.361 134.307 180.383 134.725 180.426C134.787 180.434 134.881 180.443 135.006 180.455V177.543H136.102V187H135.006V185.529ZM135.006 184.234V181.428C134.619 181.326 134.26 181.275 133.928 181.275C133.256 181.275 132.695 181.535 132.246 182.055C131.801 182.574 131.578 183.281 131.578 184.176C131.578 184.824 131.699 185.314 131.941 185.646C132.188 185.975 132.467 186.139 132.779 186.139C133.119 186.139 133.494 185.967 133.904 185.623C134.314 185.279 134.682 184.816 135.006 184.234ZM143.285 186.566C142.414 186.98 141.59 187.188 140.812 187.188C140.223 187.188 139.695 187.041 139.23 186.748C138.766 186.455 138.393 186.037 138.111 185.494C137.834 184.947 137.695 184.363 137.695 183.742C137.695 183.145 137.828 182.57 138.094 182.02C138.359 181.469 138.73 181.041 139.207 180.736C139.684 180.428 140.215 180.273 140.801 180.273C141.578 180.273 142.201 180.551 142.67 181.105C143.143 181.66 143.379 182.516 143.379 183.672V183.906H138.867C138.867 184.359 138.961 184.773 139.148 185.148C139.34 185.523 139.59 185.805 139.898 185.992C140.207 186.18 140.559 186.273 140.953 186.273C141.656 186.273 142.434 186.039 143.285 185.57V186.566ZM138.932 183.092H142.195V182.934C142.195 182.398 142.064 181.973 141.803 181.656C141.541 181.34 141.191 181.182 140.754 181.182C140.312 181.182 139.93 181.344 139.605 181.668C139.285 181.988 139.061 182.463 138.932 183.092ZM146.807 187V178.457H144.85V177.543H147.896V186.092H149.941V187H146.807ZM154.945 187.275C154.684 187.275 154.459 187.182 154.271 186.994C154.084 186.807 153.99 186.582 153.99 186.32C153.99 186.055 154.084 185.83 154.271 185.646C154.463 185.459 154.688 185.365 154.945 185.365C155.203 185.365 155.426 185.459 155.613 185.646C155.805 185.83 155.9 186.055 155.9 186.32C155.9 186.582 155.807 186.807 155.619 186.994C155.432 187.182 155.207 187.275 154.945 187.275ZM164.93 186.895C164.25 187.148 163.641 187.275 163.102 187.275C162.391 187.275 161.736 187.086 161.139 186.707C160.541 186.324 160.076 185.758 159.744 185.008C159.412 184.254 159.246 183.402 159.246 182.453C159.246 181.512 159.41 180.666 159.738 179.916C160.066 179.166 160.529 178.598 161.127 178.211C161.725 177.824 162.383 177.631 163.102 177.631C163.641 177.631 164.25 177.758 164.93 178.012V179.09C164.301 178.727 163.676 178.545 163.055 178.545C162.586 178.545 162.156 178.705 161.766 179.025C161.379 179.346 161.066 179.816 160.828 180.438C160.59 181.055 160.471 181.727 160.471 182.453C160.471 183.191 160.594 183.873 160.84 184.498C161.086 185.123 161.4 185.592 161.783 185.904C162.166 186.213 162.59 186.367 163.055 186.367C163.672 186.367 164.297 186.186 164.93 185.822V186.895ZM169.365 187.182C168.428 187.182 167.678 186.855 167.115 186.203C166.553 185.547 166.271 184.721 166.271 183.725C166.271 182.729 166.553 181.904 167.115 181.252C167.678 180.6 168.428 180.273 169.365 180.273C170.299 180.273 171.047 180.6 171.609 181.252C172.172 181.904 172.453 182.729 172.453 183.725C172.453 184.721 172.172 185.547 171.609 186.203C171.047 186.855 170.299 187.182 169.365 187.182ZM169.365 186.273C169.947 186.273 170.41 186.047 170.754 185.594C171.098 185.141 171.27 184.518 171.27 183.725C171.27 182.936 171.098 182.314 170.754 181.861C170.41 181.408 169.947 181.182 169.365 181.182C168.779 181.182 168.314 181.408 167.971 181.861C167.627 182.314 167.455 182.936 167.455 183.725C167.455 184.518 167.627 185.141 167.971 185.594C168.314 186.047 168.779 186.273 169.365 186.273ZM179.262 180.455V187H178.172V185.564C177.82 186.104 177.43 186.508 177 186.777C176.57 187.047 176.141 187.182 175.711 187.182C175.328 187.182 174.977 187.08 174.656 186.877C174.34 186.67 174.119 186.4 173.994 186.068C173.869 185.732 173.807 185.08 173.807 184.111V180.455H174.896V184.246C174.896 184.875 174.926 185.291 174.984 185.494C175.047 185.693 175.158 185.857 175.318 185.986C175.482 186.115 175.658 186.18 175.846 186.18C176.229 186.18 176.639 186 177.076 185.641C177.518 185.277 177.883 184.82 178.172 184.27V180.455H179.262ZM181.084 187V180.455H182.174V181.885C182.486 181.381 182.863 180.986 183.305 180.701C183.746 180.416 184.188 180.273 184.629 180.273C185.016 180.273 185.367 180.377 185.684 180.584C186 180.787 186.221 181.055 186.346 181.387C186.475 181.719 186.539 182.371 186.539 183.344V187H185.449V183.209C185.449 182.58 185.418 182.166 185.355 181.967C185.297 181.764 185.186 181.598 185.021 181.469C184.861 181.34 184.686 181.275 184.494 181.275C184.111 181.275 183.699 181.457 183.258 181.82C182.82 182.184 182.459 182.639 182.174 183.186V187H181.084ZM193.764 186.736C193.252 186.951 192.881 187.078 192.65 187.117C192.42 187.16 192.197 187.182 191.982 187.182C191.525 187.182 191.107 187.094 190.729 186.918C190.35 186.742 190.062 186.482 189.867 186.139C189.676 185.795 189.58 185.264 189.58 184.545V181.908H187.945V181H189.58V178.363H190.67V181H193.582V181.908H190.67V184.527C190.67 185.055 190.732 185.428 190.857 185.646C190.982 185.861 191.148 186.02 191.355 186.121C191.566 186.223 191.814 186.273 192.1 186.273C192.627 186.273 193.182 186.107 193.764 185.775V186.736ZM201.369 183.361V184.275H198.645V187H197.73V184.275H195.006V183.361H197.73V180.637H198.645V183.361H201.369ZM208.576 183.361V184.275H205.852V187H204.938V184.275H202.213V183.361H204.938V180.637H205.852V183.361H208.576ZM211.488 189.543V188.816C211.77 188.742 211.982 188.635 212.127 188.494C212.275 188.357 212.393 188.182 212.479 187.967C212.568 187.756 212.613 187.5 212.613 187.199C212.25 187.199 211.982 187.098 211.811 186.895C211.639 186.688 211.553 186.467 211.553 186.232C211.553 185.963 211.648 185.736 211.84 185.553C212.031 185.365 212.254 185.271 212.508 185.271C212.836 185.271 213.119 185.414 213.357 185.699C213.596 185.98 213.715 186.367 213.715 186.859C213.715 187.289 213.621 187.693 213.434 188.072C213.246 188.455 212.99 188.781 212.666 189.051C212.346 189.32 211.953 189.484 211.488 189.543ZM212.508 182.184C212.246 182.184 212.021 182.09 211.834 181.902C211.646 181.715 211.553 181.49 211.553 181.229C211.553 180.963 211.646 180.738 211.834 180.555C212.025 180.367 212.25 180.273 212.508 180.273C212.766 180.273 212.988 180.367 213.176 180.555C213.367 180.738 213.463 180.963 213.463 181.229C213.463 181.49 213.369 181.715 213.182 181.902C212.994 182.09 212.77 182.184 212.508 182.184ZM3.99609 205.273C3.63281 205.082 3.36523 204.895 3.19336 204.711C3.02539 204.527 2.90039 204.34 2.81836 204.148C2.73633 203.953 2.69531 203.73 2.69531 203.48C2.69531 203.258 2.73242 202.967 2.80664 202.607L2.95312 201.939C3.03125 201.576 3.07031 201.307 3.07031 201.131C3.07031 200.893 2.97656 200.691 2.78906 200.527C2.60547 200.359 2.22461 200.275 1.64648 200.275H0.738281V199.361H1.6582C2.72852 199.361 3.41797 199.535 3.72656 199.883C4.03906 200.227 4.19531 200.613 4.19531 201.043C4.19531 201.277 4.16406 201.527 4.10156 201.793L3.99609 202.262L3.89648 202.771L3.82617 203.076C3.79883 203.225 3.78516 203.367 3.78516 203.504C3.78516 203.863 3.90625 204.172 4.14844 204.43C4.39453 204.688 4.82617 204.816 5.44336 204.816H5.96484V205.725H5.44336C4.83398 205.725 4.4043 205.854 4.1543 206.111C3.9082 206.365 3.78516 206.682 3.78516 207.061C3.78516 207.197 3.79883 207.332 3.82617 207.465L3.89648 207.775L3.99609 208.285L4.10156 208.754C4.16406 209.023 4.19531 209.273 4.19531 209.504C4.19531 209.938 4.03906 210.324 3.72656 210.664C3.41797 211.008 2.72852 211.18 1.6582 211.18H0.738281V210.271H1.64648C2.22461 210.271 2.60547 210.188 2.78906 210.02C2.97656 209.855 3.07031 209.652 3.07031 209.41C3.07031 209.238 3.03125 208.971 2.95312 208.607L2.80664 207.939C2.73242 207.58 2.69531 207.289 2.69531 207.066C2.69531 206.816 2.73633 206.596 2.81836 206.404C2.90039 206.209 3.02539 206.02 3.19336 205.836C3.36523 205.652 3.63281 205.465 3.99609 205.273Z" fill="#DCDCDC"/>
<path d="M106.775 1.90625H107.912L105.111 11H103.91L101.092 1.90625H102.34L104.314 8.25781L104.572 9.18359L104.801 8.26367L106.775 1.90625ZM110.848 11V5.36328H109.031V4.45508H111.938V10.0918H113.76V11H110.848ZM110.666 2.09375C110.666 1.84766 110.75 1.66406 110.918 1.54297C111.086 1.42188 111.244 1.36133 111.393 1.36133C111.545 1.36133 111.705 1.42188 111.873 1.54297C112.041 1.66406 112.125 1.84766 112.125 2.09375C112.125 2.33594 112.041 2.51758 111.873 2.63867C111.705 2.75977 111.545 2.82031 111.393 2.82031C111.244 2.82031 111.086 2.75977 110.918 2.63867C110.75 2.51758 110.666 2.33594 110.666 2.09375ZM121.664 10.5664C120.793 10.9805 119.969 11.1875 119.191 11.1875C118.602 11.1875 118.074 11.041 117.609 10.748C117.145 10.4551 116.771 10.0371 116.49 9.49414C116.213 8.94727 116.074 8.36328 116.074 7.74219C116.074 7.14453 116.207 6.57031 116.473 6.01953C116.738 5.46875 117.109 5.04102 117.586 4.73633C118.062 4.42773 118.594 4.27344 119.18 4.27344C119.957 4.27344 120.58 4.55078 121.049 5.10547C121.521 5.66016 121.758 6.51562 121.758 7.67188V7.90625H117.246C117.246 8.35938 117.34 8.77344 117.527 9.14844C117.719 9.52344 117.969 9.80469 118.277 9.99219C118.586 10.1797 118.938 10.2734 119.332 10.2734C120.035 10.2734 120.812 10.0391 121.664 9.57031V10.5664ZM117.311 7.0918H120.574V6.93359C120.574 6.39844 120.443 5.97266 120.182 5.65625C119.92 5.33984 119.57 5.18164 119.133 5.18164C118.691 5.18164 118.309 5.34375 117.984 5.66797C117.664 5.98828 117.439 6.46289 117.311 7.0918ZM123.703 11L122.637 4.45508H123.65L124.271 8.43945L124.436 9.36523L124.594 8.43945L125.637 4.45508H126.615L127.793 8.43945L127.998 9.36523L128.133 8.43945L128.76 4.45508H129.598L128.537 11H127.518L126.264 6.78711L126.064 5.86133H126.035L125.854 6.78125L124.764 11H123.703ZM131.01 11H130.055V1.90625H131.244L133.342 7.89453L135.439 1.90625H136.6V11H135.51V5.20508L135.539 4.4082H135.51L135.252 5.20508L133.846 9.18359H132.662L131.238 5.20508L131.01 4.4082H130.98L131.01 5.20508V11ZM140.537 11.1816C139.6 11.1816 138.85 10.8555 138.287 10.2031C137.725 9.54688 137.443 8.7207 137.443 7.72461C137.443 6.72852 137.725 5.9043 138.287 5.25195C138.85 4.59961 139.6 4.27344 140.537 4.27344C141.471 4.27344 142.219 4.59961 142.781 5.25195C143.344 5.9043 143.625 6.72852 143.625 7.72461C143.625 8.7207 143.344 9.54688 142.781 10.2031C142.219 10.8555 141.471 11.1816 140.537 11.1816ZM140.537 10.2734C141.119 10.2734 141.582 10.0469 141.926 9.59375C142.27 9.14062 142.441 8.51758 142.441 7.72461C142.441 6.93555 142.27 6.31445 141.926 5.86133C141.582 5.4082 141.119 5.18164 140.537 5.18164C139.951 5.18164 139.486 5.4082 139.143 5.86133C138.799 6.31445 138.627 6.93555 138.627 7.72461C138.627 8.51758 138.799 9.14062 139.143 9.59375C139.486 10.0469 139.951 10.2734 140.537 10.2734ZM149.42 9.5293C149.088 10.0762 148.688 10.4883 148.219 10.7656C147.754 11.043 147.326 11.1816 146.936 11.1816C146.389 11.1816 145.896 10.9453 145.459 10.4727C145.025 10 144.809 9.2832 144.809 8.32227C144.809 7.56445 144.953 6.88867 145.242 6.29492C145.531 5.69727 145.918 5.22656 146.402 4.88281C146.887 4.53516 147.486 4.36133 148.201 4.36133C148.408 4.36133 148.721 4.38281 149.139 4.42578C149.201 4.43359 149.295 4.44336 149.42 4.45508V1.54297H150.516V11H149.42V9.5293ZM149.42 8.23438V5.42773C149.033 5.32617 148.674 5.27539 148.342 5.27539C147.67 5.27539 147.109 5.53516 146.66 6.05469C146.215 6.57422 145.992 7.28125 145.992 8.17578C145.992 8.82422 146.113 9.31445 146.355 9.64648C146.602 9.97461 146.881 10.1387 147.193 10.1387C147.533 10.1387 147.908 9.9668 148.318 9.62305C148.729 9.2793 149.096 8.81641 149.42 8.23438ZM157.699 10.5664C156.828 10.9805 156.004 11.1875 155.227 11.1875C154.637 11.1875 154.109 11.041 153.645 10.748C153.18 10.4551 152.807 10.0371 152.525 9.49414C152.248 8.94727 152.109 8.36328 152.109 7.74219C152.109 7.14453 152.242 6.57031 152.508 6.01953C152.773 5.46875 153.145 5.04102 153.621 4.73633C154.098 4.42773 154.629 4.27344 155.215 4.27344C155.992 4.27344 156.615 4.55078 157.084 5.10547C157.557 5.66016 157.793 6.51562 157.793 7.67188V7.90625H153.281C153.281 8.35938 153.375 8.77344 153.562 9.14844C153.754 9.52344 154.004 9.80469 154.312 9.99219C154.621 10.1797 154.973 10.2734 155.367 10.2734C156.07 10.2734 156.848 10.0391 157.699 9.57031V10.5664ZM153.346 7.0918H156.609V6.93359C156.609 6.39844 156.479 5.97266 156.217 5.65625C155.955 5.33984 155.605 5.18164 155.168 5.18164C154.727 5.18164 154.344 5.34375 154.02 5.66797C153.699 5.98828 153.475 6.46289 153.346 7.0918ZM161.221 11V2.45703H159.264V1.54297H162.311V10.0918H164.355V11H161.221ZM114.48 142.895C113.801 143.148 113.191 143.275 112.652 143.275C111.941 143.275 111.287 143.086 110.689 142.707C110.092 142.324 109.627 141.758 109.295 141.008C108.963 140.254 108.797 139.402 108.797 138.453C108.797 137.512 108.961 136.666 109.289 135.916C109.617 135.166 110.08 134.598 110.678 134.211C111.275 133.824 111.934 133.631 112.652 133.631C113.191 133.631 113.801 133.758 114.48 134.012V135.09C113.852 134.727 113.227 134.545 112.605 134.545C112.137 134.545 111.707 134.705 111.316 135.025C110.93 135.346 110.617 135.816 110.379 136.438C110.141 137.055 110.021 137.727 110.021 138.453C110.021 139.191 110.145 139.873 110.391 140.498C110.637 141.123 110.951 141.592 111.334 141.904C111.717 142.213 112.141 142.367 112.605 142.367C113.223 142.367 113.848 142.186 114.48 141.822V142.895ZM118.916 143.182C117.979 143.182 117.229 142.855 116.666 142.203C116.104 141.547 115.822 140.721 115.822 139.725C115.822 138.729 116.104 137.904 116.666 137.252C117.229 136.6 117.979 136.273 118.916 136.273C119.85 136.273 120.598 136.6 121.16 137.252C121.723 137.904 122.004 138.729 122.004 139.725C122.004 140.721 121.723 141.547 121.16 142.203C120.598 142.855 119.85 143.182 118.916 143.182ZM118.916 142.273C119.498 142.273 119.961 142.047 120.305 141.594C120.648 141.141 120.82 140.518 120.82 139.725C120.82 138.936 120.648 138.314 120.305 137.861C119.961 137.408 119.498 137.182 118.916 137.182C118.33 137.182 117.865 137.408 117.521 137.861C117.178 138.314 117.006 138.936 117.006 139.725C117.006 140.518 117.178 141.141 117.521 141.594C117.865 142.047 118.33 142.273 118.916 142.273ZM123.428 143V136.455H124.518V137.885C124.83 137.381 125.207 136.986 125.648 136.701C126.09 136.416 126.531 136.273 126.973 136.273C127.359 136.273 127.711 136.377 128.027 136.584C128.344 136.787 128.564 137.055 128.689 137.387C128.818 137.719 128.883 138.371 128.883 139.344V143H127.793V139.209C127.793 138.58 127.762 138.166 127.699 137.967C127.641 137.764 127.529 137.598 127.365 137.469C127.205 137.34 127.029 137.275 126.838 137.275C126.455 137.275 126.043 137.457 125.602 137.82C125.164 138.184 124.803 138.639 124.518 139.186V143H123.428ZM136.107 142.736C135.596 142.951 135.225 143.078 134.994 143.117C134.764 143.16 134.541 143.182 134.326 143.182C133.869 143.182 133.451 143.094 133.072 142.918C132.693 142.742 132.406 142.482 132.211 142.139C132.02 141.795 131.924 141.264 131.924 140.545V137.908H130.289V137H131.924V134.363H133.014V137H135.926V137.908H133.014V140.527C133.014 141.055 133.076 141.428 133.201 141.646C133.326 141.861 133.492 142.02 133.699 142.121C133.91 142.223 134.158 142.273 134.443 142.273C134.971 142.273 135.525 142.107 136.107 141.775V142.736ZM143.285 142.566C142.414 142.98 141.59 143.188 140.812 143.188C140.223 143.188 139.695 143.041 139.23 142.748C138.766 142.455 138.393 142.037 138.111 141.494C137.834 140.947 137.695 140.363 137.695 139.742C137.695 139.145 137.828 138.57 138.094 138.02C138.359 137.469 138.73 137.041 139.207 136.736C139.684 136.428 140.215 136.273 140.801 136.273C141.578 136.273 142.201 136.551 142.67 137.105C143.143 137.66 143.379 138.516 143.379 139.672V139.906H138.867C138.867 140.359 138.961 140.773 139.148 141.148C139.34 141.523 139.59 141.805 139.898 141.992C140.207 142.18 140.559 142.273 140.953 142.273C141.656 142.273 142.434 142.039 143.285 141.57V142.566ZM138.932 139.092H142.195V138.934C142.195 138.398 142.064 137.973 141.803 137.656C141.541 137.34 141.191 137.182 140.754 137.182C140.312 137.182 139.93 137.344 139.605 137.668C139.285 137.988 139.061 138.463 138.932 139.092ZM145.729 143H144.469L147.041 139.572L144.639 136.455H146.033L147.738 138.652L149.396 136.455H150.633L148.359 139.467L151.061 143H149.66L147.668 140.393L145.729 143ZM157.729 142.736C157.217 142.951 156.846 143.078 156.615 143.117C156.385 143.16 156.162 143.182 155.947 143.182C155.49 143.182 155.072 143.094 154.693 142.918C154.314 142.742 154.027 142.482 153.832 142.139C153.641 141.795 153.545 141.264 153.545 140.545V137.908H151.91V137H153.545V134.363H154.635V137H157.547V137.908H154.635V140.527C154.635 141.055 154.697 141.428 154.822 141.646C154.947 141.861 155.113 142.02 155.32 142.121C155.531 142.223 155.779 142.273 156.064 142.273C156.592 142.273 157.146 142.107 157.729 141.775V142.736Z" fill="#71C6B1"/>
<path d="M176.004 11L173.162 4.45508H174.357L176.602 9.63477L178.893 4.45508H179.982L177.117 11H176.004ZM182.918 11V5.36328H181.102V4.45508H184.008V10.0918H185.83V11H182.918ZM182.736 2.09375C182.736 1.84766 182.82 1.66406 182.988 1.54297C183.156 1.42188 183.314 1.36133 183.463 1.36133C183.615 1.36133 183.775 1.42188 183.943 1.54297C184.111 1.66406 184.195 1.84766 184.195 2.09375C184.195 2.33594 184.111 2.51758 183.943 2.63867C183.775 2.75977 183.615 2.82031 183.463 2.82031C183.314 2.82031 183.156 2.75977 182.988 2.63867C182.82 2.51758 182.736 2.33594 182.736 2.09375ZM193.734 10.5664C192.863 10.9805 192.039 11.1875 191.262 11.1875C190.672 11.1875 190.145 11.041 189.68 10.748C189.215 10.4551 188.842 10.0371 188.561 9.49414C188.283 8.94727 188.145 8.36328 188.145 7.74219C188.145 7.14453 188.277 6.57031 188.543 6.01953C188.809 5.46875 189.18 5.04102 189.656 4.73633C190.133 4.42773 190.664 4.27344 191.25 4.27344C192.027 4.27344 192.65 4.55078 193.119 5.10547C193.592 5.66016 193.828 6.51562 193.828 7.67188V7.90625H189.316C189.316 8.35938 189.41 8.77344 189.598 9.14844C189.789 9.52344 190.039 9.80469 190.348 9.99219C190.656 10.1797 191.008 10.2734 191.402 10.2734C192.105 10.2734 192.883 10.0391 193.734 9.57031V10.5664ZM189.381 7.0918H192.645V6.93359C192.645 6.39844 192.514 5.97266 192.252 5.65625C191.99 5.33984 191.641 5.18164 191.203 5.18164C190.762 5.18164 190.379 5.34375 190.055 5.66797C189.734 5.98828 189.51 6.46289 189.381 7.0918ZM195.773 11L194.707 4.45508H195.721L196.342 8.43945L196.506 9.36523L196.664 8.43945L197.707 4.45508H198.686L199.863 8.43945L200.068 9.36523L200.203 8.43945L200.83 4.45508H201.668L200.607 11H199.588L198.334 6.78711L198.135 5.86133H198.105L197.924 6.78125L196.834 11H195.773ZM203.08 11H202.125V1.90625H203.314L205.412 7.89453L207.51 1.90625H208.67V11H207.58V5.20508L207.609 4.4082H207.58L207.322 5.20508L205.916 9.18359H204.732L203.309 5.20508L203.08 4.4082H203.051L203.08 5.20508V11ZM212.607 11.1816C211.67 11.1816 210.92 10.8555 210.357 10.2031C209.795 9.54688 209.514 8.7207 209.514 7.72461C209.514 6.72852 209.795 5.9043 210.357 5.25195C210.92 4.59961 211.67 4.27344 212.607 4.27344C213.541 4.27344 214.289 4.59961 214.852 5.25195C215.414 5.9043 215.695 6.72852 215.695 7.72461C215.695 8.7207 215.414 9.54688 214.852 10.2031C214.289 10.8555 213.541 11.1816 212.607 11.1816ZM212.607 10.2734C213.189 10.2734 213.652 10.0469 213.996 9.59375C214.34 9.14062 214.512 8.51758 214.512 7.72461C214.512 6.93555 214.34 6.31445 213.996 5.86133C213.652 5.4082 213.189 5.18164 212.607 5.18164C212.021 5.18164 211.557 5.4082 211.213 5.86133C210.869 6.31445 210.697 6.93555 210.697 7.72461C210.697 8.51758 210.869 9.14062 211.213 9.59375C211.557 10.0469 212.021 10.2734 212.607 10.2734ZM221.49 9.5293C221.158 10.0762 220.758 10.4883 220.289 10.7656C219.824 11.043 219.396 11.1816 219.006 11.1816C218.459 11.1816 217.967 10.9453 217.529 10.4727C217.096 10 216.879 9.2832 216.879 8.32227C216.879 7.56445 217.023 6.88867 217.312 6.29492C217.602 5.69727 217.988 5.22656 218.473 4.88281C218.957 4.53516 219.557 4.36133 220.271 4.36133C220.479 4.36133 220.791 4.38281 221.209 4.42578C221.271 4.43359 221.365 4.44336 221.49 4.45508V1.54297H222.586V11H221.49V9.5293ZM221.49 8.23438V5.42773C221.104 5.32617 220.744 5.27539 220.412 5.27539C219.74 5.27539 219.18 5.53516 218.73 6.05469C218.285 6.57422 218.062 7.28125 218.062 8.17578C218.062 8.82422 218.184 9.31445 218.426 9.64648C218.672 9.97461 218.951 10.1387 219.264 10.1387C219.604 10.1387 219.979 9.9668 220.389 9.62305C220.799 9.2793 221.166 8.81641 221.49 8.23438ZM229.77 10.5664C228.898 10.9805 228.074 11.1875 227.297 11.1875C226.707 11.1875 226.18 11.041 225.715 10.748C225.25 10.4551 224.877 10.0371 224.596 9.49414C224.318 8.94727 224.18 8.36328 224.18 7.74219C224.18 7.14453 224.312 6.57031 224.578 6.01953C224.844 5.46875 225.215 5.04102 225.691 4.73633C226.168 4.42773 226.699 4.27344 227.285 4.27344C228.062 4.27344 228.686 4.55078 229.154 5.10547C229.627 5.66016 229.863 6.51562 229.863 7.67188V7.90625H225.352C225.352 8.35938 225.445 8.77344 225.633 9.14844C225.824 9.52344 226.074 9.80469 226.383 9.99219C226.691 10.1797 227.043 10.2734 227.438 10.2734C228.141 10.2734 228.918 10.0391 229.77 9.57031V10.5664ZM225.416 7.0918H228.68V6.93359C228.68 6.39844 228.549 5.97266 228.287 5.65625C228.025 5.33984 227.676 5.18164 227.238 5.18164C226.797 5.18164 226.414 5.34375 226.09 5.66797C225.77 5.98828 225.545 6.46289 225.416 7.0918ZM233.291 11V2.45703H231.334V1.54297H234.381V10.0918H236.426V11H233.291ZM125.555 55L122.713 48.4551H123.908L126.152 53.6348L128.443 48.4551H129.533L126.668 55H125.555ZM132.469 55V49.3633H130.652V48.4551H133.559V54.0918H135.381V55H132.469ZM132.287 46.0938C132.287 45.8477 132.371 45.6641 132.539 45.543C132.707 45.4219 132.865 45.3613 133.014 45.3613C133.166 45.3613 133.326 45.4219 133.494 45.543C133.662 45.6641 133.746 45.8477 133.746 46.0938C133.746 46.3359 133.662 46.5176 133.494 46.6387C133.326 46.7598 133.166 46.8203 133.014 46.8203C132.865 46.8203 132.707 46.7598 132.539 46.6387C132.371 46.5176 132.287 46.3359 132.287 46.0938ZM143.285 54.5664C142.414 54.9805 141.59 55.1875 140.812 55.1875C140.223 55.1875 139.695 55.041 139.23 54.748C138.766 54.4551 138.393 54.0371 138.111 53.4941C137.834 52.9473 137.695 52.3633 137.695 51.7422C137.695 51.1445 137.828 50.5703 138.094 50.0195C138.359 49.4688 138.73 49.041 139.207 48.7363C139.684 48.4277 140.215 48.2734 140.801 48.2734C141.578 48.2734 142.201 48.5508 142.67 49.1055C143.143 49.6602 143.379 50.5156 143.379 51.6719V51.9062H138.867C138.867 52.3594 138.961 52.7734 139.148 53.1484C139.34 53.5234 139.59 53.8047 139.898 53.9922C140.207 54.1797 140.559 54.2734 140.953 54.2734C141.656 54.2734 142.434 54.0391 143.285 53.5703V54.5664ZM138.932 51.0918H142.195V50.9336C142.195 50.3984 142.064 49.9727 141.803 49.6562C141.541 49.3398 141.191 49.1816 140.754 49.1816C140.312 49.1816 139.93 49.3438 139.605 49.668C139.285 49.9883 139.061 50.4629 138.932 51.0918ZM145.324 55L144.258 48.4551H145.271L145.893 52.4395L146.057 53.3652L146.215 52.4395L147.258 48.4551H148.236L149.414 52.4395L149.619 53.3652L149.754 52.4395L150.381 48.4551H151.219L150.158 55H149.139L147.885 50.7871L147.686 49.8613H147.656L147.475 50.7812L146.385 55H145.324ZM152.631 55H151.676V45.9062H152.865L154.963 51.8945L157.061 45.9062H158.221V55H157.131V49.2051L157.16 48.4082H157.131L156.873 49.2051L155.467 53.1836H154.283L152.859 49.2051L152.631 48.4082H152.602L152.631 49.2051V55ZM162.158 55.1816C161.221 55.1816 160.471 54.8555 159.908 54.2031C159.346 53.5469 159.064 52.7207 159.064 51.7246C159.064 50.7285 159.346 49.9043 159.908 49.252C160.471 48.5996 161.221 48.2734 162.158 48.2734C163.092 48.2734 163.84 48.5996 164.402 49.252C164.965 49.9043 165.246 50.7285 165.246 51.7246C165.246 52.7207 164.965 53.5469 164.402 54.2031C163.84 54.8555 163.092 55.1816 162.158 55.1816ZM162.158 54.2734C162.74 54.2734 163.203 54.0469 163.547 53.5938C163.891 53.1406 164.062 52.5176 164.062 51.7246C164.062 50.9355 163.891 50.3145 163.547 49.8613C163.203 49.4082 162.74 49.1816 162.158 49.1816C161.572 49.1816 161.107 49.4082 160.764 49.8613C160.42 50.3145 160.248 50.9355 160.248 51.7246C160.248 52.5176 160.42 53.1406 160.764 53.5938C161.107 54.0469 161.572 54.2734 162.158 54.2734ZM171.041 53.5293C170.709 54.0762 170.309 54.4883 169.84 54.7656C169.375 55.043 168.947 55.1816 168.557 55.1816C168.01 55.1816 167.518 54.9453 167.08 54.4727C166.646 54 166.43 53.2832 166.43 52.3223C166.43 51.5645 166.574 50.8887 166.863 50.2949C167.152 49.6973 167.539 49.2266 168.023 48.8828C168.508 48.5352 169.107 48.3613 169.822 48.3613C170.029 48.3613 170.342 48.3828 170.76 48.4258C170.822 48.4336 170.916 48.4434 171.041 48.4551V45.543H172.137V55H171.041V53.5293ZM171.041 52.2344V49.4277C170.654 49.3262 170.295 49.2754 169.963 49.2754C169.291 49.2754 168.73 49.5352 168.281 50.0547C167.836 50.5742 167.613 51.2812 167.613 52.1758C167.613 52.8242 167.734 53.3145 167.977 53.6465C168.223 53.9746 168.502 54.1387 168.814 54.1387C169.154 54.1387 169.529 53.9668 169.939 53.623C170.35 53.2793 170.717 52.8164 171.041 52.2344ZM179.32 54.5664C178.449 54.9805 177.625 55.1875 176.848 55.1875C176.258 55.1875 175.73 55.041 175.266 54.748C174.801 54.4551 174.428 54.0371 174.146 53.4941C173.869 52.9473 173.73 52.3633 173.73 51.7422C173.73 51.1445 173.863 50.5703 174.129 50.0195C174.395 49.4688 174.766 49.041 175.242 48.7363C175.719 48.4277 176.25 48.2734 176.836 48.2734C177.613 48.2734 178.236 48.5508 178.705 49.1055C179.178 49.6602 179.414 50.5156 179.414 51.6719V51.9062H174.902C174.902 52.3594 174.996 52.7734 175.184 53.1484C175.375 53.5234 175.625 53.8047 175.934 53.9922C176.242 54.1797 176.594 54.2734 176.988 54.2734C177.691 54.2734 178.469 54.0391 179.32 53.5703V54.5664ZM174.967 51.0918H178.23V50.9336C178.23 50.3984 178.1 49.9727 177.838 49.6562C177.576 49.3398 177.227 49.1816 176.789 49.1816C176.348 49.1816 175.965 49.3438 175.641 49.668C175.32 49.9883 175.096 50.4629 174.967 51.0918ZM182.842 55V46.457H180.885V45.543H183.932V54.0918H185.977V55H182.842ZM172.178 142.812C171.447 143.059 170.752 143.182 170.092 143.182C169.436 143.182 168.852 143.031 168.34 142.73C167.832 142.426 167.436 142.016 167.15 141.5C166.865 140.98 166.723 140.391 166.723 139.73C166.723 138.738 167.045 137.914 167.689 137.258C168.338 136.602 169.119 136.273 170.033 136.273C170.709 136.273 171.424 136.4 172.178 136.654V137.703C171.416 137.355 170.734 137.182 170.133 137.182C169.734 137.182 169.359 137.281 169.008 137.48C168.656 137.676 168.385 137.982 168.193 138.4C168.002 138.818 167.906 139.248 167.906 139.689C167.906 140.279 168.09 140.842 168.457 141.377C168.828 141.912 169.408 142.18 170.197 142.18C170.436 142.18 170.67 142.164 170.9 142.133C171.131 142.098 171.557 141.975 172.178 141.764V142.812ZM176.572 143.182C175.635 143.182 174.885 142.855 174.322 142.203C173.76 141.547 173.479 140.721 173.479 139.725C173.479 138.729 173.76 137.904 174.322 137.252C174.885 136.6 175.635 136.273 176.572 136.273C177.506 136.273 178.254 136.6 178.816 137.252C179.379 137.904 179.66 138.729 179.66 139.725C179.66 140.721 179.379 141.547 178.816 142.203C178.254 142.855 177.506 143.182 176.572 143.182ZM176.572 142.273C177.154 142.273 177.617 142.047 177.961 141.594C178.305 141.141 178.477 140.518 178.477 139.725C178.477 138.936 178.305 138.314 177.961 137.861C177.617 137.408 177.154 137.182 176.572 137.182C175.986 137.182 175.521 137.408 175.178 137.861C174.834 138.314 174.662 138.936 174.662 139.725C174.662 140.518 174.834 141.141 175.178 141.594C175.521 142.047 175.986 142.273 176.572 142.273ZM181.084 143V136.455H182.174V137.885C182.486 137.381 182.863 136.986 183.305 136.701C183.746 136.416 184.188 136.273 184.629 136.273C185.016 136.273 185.367 136.377 185.684 136.584C186 136.787 186.221 137.055 186.346 137.387C186.475 137.719 186.539 138.371 186.539 139.344V143H185.449V139.209C185.449 138.58 185.418 138.166 185.355 137.967C185.297 137.764 185.186 137.598 185.021 137.469C184.861 137.34 184.686 137.275 184.494 137.275C184.111 137.275 183.699 137.457 183.258 137.82C182.82 138.184 182.459 138.639 182.174 139.186V143H181.084ZM193.764 142.736C193.252 142.951 192.881 143.078 192.65 143.117C192.42 143.16 192.197 143.182 191.982 143.182C191.525 143.182 191.107 143.094 190.729 142.918C190.35 142.742 190.062 142.482 189.867 142.139C189.676 141.795 189.58 141.264 189.58 140.545V137.908H187.945V137H189.58V134.363H190.67V137H193.582V137.908H190.67V140.527C190.67 141.055 190.732 141.428 190.857 141.646C190.982 141.861 191.148 142.02 191.355 142.121C191.566 142.223 191.814 142.273 192.1 142.273C192.627 142.273 193.182 142.107 193.764 141.775V142.736ZM200.941 142.566C200.07 142.98 199.246 143.188 198.469 143.188C197.879 143.188 197.352 143.041 196.887 142.748C196.422 142.455 196.049 142.037 195.768 141.494C195.49 140.947 195.352 140.363 195.352 139.742C195.352 139.145 195.484 138.57 195.75 138.02C196.016 137.469 196.387 137.041 196.863 136.736C197.34 136.428 197.871 136.273 198.457 136.273C199.234 136.273 199.857 136.551 200.326 137.105C200.799 137.66 201.035 138.516 201.035 139.672V139.906H196.523C196.523 140.359 196.617 140.773 196.805 141.148C196.996 141.523 197.246 141.805 197.555 141.992C197.863 142.18 198.215 142.273 198.609 142.273C199.312 142.273 200.09 142.039 200.941 141.57V142.566ZM196.588 139.092H199.852V138.934C199.852 138.398 199.721 137.973 199.459 137.656C199.197 137.34 198.848 137.182 198.41 137.182C197.969 137.182 197.586 137.344 197.262 137.668C196.941 137.988 196.717 138.463 196.588 139.092ZM203.385 143H202.125L204.697 139.572L202.295 136.455H203.689L205.395 138.652L207.053 136.455H208.289L206.016 139.467L208.717 143H207.316L205.324 140.393L203.385 143ZM215.385 142.736C214.873 142.951 214.502 143.078 214.271 143.117C214.041 143.16 213.818 143.182 213.604 143.182C213.146 143.182 212.729 143.094 212.35 142.918C211.971 142.742 211.684 142.482 211.488 142.139C211.297 141.795 211.201 141.264 211.201 140.545V137.908H209.566V137H211.201V134.363H212.291V137H215.203V137.908H212.291V140.527C212.291 141.055 212.354 141.428 212.479 141.646C212.604 141.861 212.77 142.02 212.977 142.121C213.188 142.223 213.436 142.273 213.721 142.273C214.248 142.273 214.803 142.107 215.385 141.775V142.736ZM35.2441 186.812C34.5137 187.059 33.8184 187.182 33.1582 187.182C32.502 187.182 31.918 187.031 31.4062 186.73C30.8984 186.426 30.502 186.016 30.2168 185.5C29.9316 184.98 29.7891 184.391 29.7891 183.73C29.7891 182.738 30.1113 181.914 30.7559 181.258C31.4043 180.602 32.1855 180.273 33.0996 180.273C33.7754 180.273 34.4902 180.4 35.2441 180.654V181.703C34.4824 181.355 33.8008 181.182 33.1992 181.182C32.8008 181.182 32.4258 181.281 32.0742 181.48C31.7227 181.676 31.4512 181.982 31.2598 182.4C31.0684 182.818 30.9727 183.248 30.9727 183.689C30.9727 184.279 31.1562 184.842 31.5234 185.377C31.8945 185.912 32.4746 186.18 33.2637 186.18C33.502 186.18 33.7363 186.164 33.9668 186.133C34.1973 186.098 34.623 185.975 35.2441 185.764V186.812ZM39.6387 187.182C38.7012 187.182 37.9512 186.855 37.3887 186.203C36.8262 185.547 36.5449 184.721 36.5449 183.725C36.5449 182.729 36.8262 181.904 37.3887 181.252C37.9512 180.6 38.7012 180.273 39.6387 180.273C40.5723 180.273 41.3203 180.6 41.8828 181.252C42.4453 181.904 42.7266 182.729 42.7266 183.725C42.7266 184.721 42.4453 185.547 41.8828 186.203C41.3203 186.855 40.5723 187.182 39.6387 187.182ZM39.6387 186.273C40.2207 186.273 40.6836 186.047 41.0273 185.594C41.3711 185.141 41.543 184.518 41.543 183.725C41.543 182.936 41.3711 182.314 41.0273 181.861C40.6836 181.408 40.2207 181.182 39.6387 181.182C39.0527 181.182 38.5879 181.408 38.2441 181.861C37.9004 182.314 37.7285 182.936 37.7285 183.725C37.7285 184.518 37.9004 185.141 38.2441 185.594C38.5879 186.047 39.0527 186.273 39.6387 186.273ZM44.1504 187V180.455H45.2402V181.885C45.5527 181.381 45.9297 180.986 46.3711 180.701C46.8125 180.416 47.2539 180.273 47.6953 180.273C48.082 180.273 48.4336 180.377 48.75 180.584C49.0664 180.787 49.2871 181.055 49.4121 181.387C49.541 181.719 49.6055 182.371 49.6055 183.344V187H48.5156V183.209C48.5156 182.58 48.4844 182.166 48.4219 181.967C48.3633 181.764 48.252 181.598 48.0879 181.469C47.9277 181.34 47.752 181.275 47.5605 181.275C47.1777 181.275 46.7656 181.457 46.3242 181.82C45.8867 182.184 45.5254 182.639 45.2402 183.186V187H44.1504ZM56.8301 186.736C56.3184 186.951 55.9473 187.078 55.7168 187.117C55.4863 187.16 55.2637 187.182 55.0488 187.182C54.5918 187.182 54.1738 187.094 53.7949 186.918C53.416 186.742 53.1289 186.482 52.9336 186.139C52.7422 185.795 52.6465 185.264 52.6465 184.545V181.908H51.0117V181H52.6465V178.363H53.7363V181H56.6484V181.908H53.7363V184.527C53.7363 185.055 53.7988 185.428 53.9238 185.646C54.0488 185.861 54.2148 186.02 54.4219 186.121C54.6328 186.223 54.8809 186.273 55.166 186.273C55.6934 186.273 56.248 186.107 56.8301 185.775V186.736ZM64.0078 186.566C63.1367 186.98 62.3125 187.188 61.5352 187.188C60.9453 187.188 60.418 187.041 59.9531 186.748C59.4883 186.455 59.1152 186.037 58.834 185.494C58.5566 184.947 58.418 184.363 58.418 183.742C58.418 183.145 58.5508 182.57 58.8164 182.02C59.082 181.469 59.4531 181.041 59.9297 180.736C60.4062 180.428 60.9375 180.273 61.5234 180.273C62.3008 180.273 62.9238 180.551 63.3926 181.105C63.8652 181.66 64.1016 182.516 64.1016 183.672V183.906H59.5898C59.5898 184.359 59.6836 184.773 59.8711 185.148C60.0625 185.523 60.3125 185.805 60.6211 185.992C60.9297 186.18 61.2812 186.273 61.6758 186.273C62.3789 186.273 63.1562 186.039 64.0078 185.57V186.566ZM59.6543 183.092H62.918V182.934C62.918 182.398 62.7871 181.973 62.5254 181.656C62.2637 181.34 61.9141 181.182 61.4766 181.182C61.0352 181.182 60.6523 181.344 60.3281 181.668C60.0078 181.988 59.7832 182.463 59.6543 183.092ZM66.4512 187H65.1914L67.7637 183.572L65.3613 180.455H66.7559L68.4609 182.652L70.1191 180.455H71.3555L69.082 183.467L71.7832 187H70.3828L68.3906 184.393L66.4512 187ZM78.4512 186.736C77.9395 186.951 77.5684 187.078 77.3379 187.117C77.1074 187.16 76.8848 187.182 76.6699 187.182C76.2129 187.182 75.7949 187.094 75.416 186.918C75.0371 186.742 74.75 186.482 74.5547 186.139C74.3633 185.795 74.2676 185.264 74.2676 184.545V181.908H72.6328V181H74.2676V178.363H75.3574V181H78.2695V181.908H75.3574V184.527C75.3574 185.055 75.4199 185.428 75.5449 185.646C75.6699 185.861 75.8359 186.02 76.043 186.121C76.2539 186.223 76.502 186.273 76.7871 186.273C77.3145 186.273 77.8691 186.107 78.4512 185.775V186.736Z" fill="#A9D9FA"/>
<path d="M277.266 11.9082V10.9883C277.004 10.9883 276.732 10.9746 276.451 10.9473C276.17 10.9199 275.906 10.8789 275.66 10.8242C275.414 10.7656 275.131 10.6641 274.811 10.5195V9.39453C275.068 9.52734 275.32 9.64062 275.566 9.73438C275.816 9.82812 276.078 9.90234 276.352 9.95703C276.629 10.0117 276.934 10.0508 277.266 10.0742V6.81055L276.639 6.4707C275.451 5.83398 274.857 5.06445 274.857 4.16211C274.857 3.68164 275.055 3.21484 275.449 2.76172C275.844 2.30469 276.449 2.04102 277.266 1.9707V0.998047H278.086V1.9707C278.547 1.9707 279.092 2.05078 279.721 2.21094V3.22461L279.516 3.16602C278.926 3.00195 278.449 2.90234 278.086 2.86719V6.05469L278.742 6.42969C279.359 6.78516 279.781 7.13477 280.008 7.47852C280.238 7.82227 280.354 8.1875 280.354 8.57422C280.354 8.92188 280.266 9.25977 280.09 9.58789C279.918 9.91211 279.67 10.1914 279.346 10.4258C279.021 10.6602 278.602 10.8223 278.086 10.9121V11.9082H277.266ZM277.266 5.5625V2.85547C276.871 2.94531 276.566 3.09375 276.352 3.30078C276.141 3.50781 276.035 3.75 276.035 4.02734C276.035 4.28906 276.125 4.54102 276.305 4.7832C276.488 5.02148 276.809 5.28125 277.266 5.5625ZM278.086 7.29688V9.99219C278.512 9.83984 278.799 9.6543 278.947 9.43555C279.1 9.21289 279.176 8.96484 279.176 8.69141C279.176 8.42578 279.102 8.19922 278.953 8.01172C278.805 7.82031 278.516 7.58203 278.086 7.29688ZM283.799 4.81836H283.049L282.674 1.54297H284.133L283.799 4.81836ZM286.324 4.81836H285.58L285.246 1.54297H286.676L286.324 4.81836ZM291.006 4.81836H290.256L289.881 1.54297H291.34L291.006 4.81836ZM293.531 4.81836H292.787L292.453 1.54297H293.883L293.531 4.81836ZM298.213 4.81836H297.463L297.088 1.54297H298.547L298.213 4.81836ZM300.738 4.81836H299.994L299.66 1.54297H301.09L300.738 4.81836ZM29.2441 29.8184L35.6074 26.6367V27.6504L31.2598 29.8125L35.6074 31.998V33L29.2441 29.8184ZM37.9512 27.9258C38.2871 27.3789 38.6875 26.9668 39.1523 26.6895C39.6172 26.4121 40.0449 26.2734 40.4355 26.2734C40.9824 26.2734 41.4746 26.5098 41.9121 26.9824C42.3496 27.4551 42.5684 28.1719 42.5684 29.1328C42.5684 29.8906 42.4219 30.5684 42.1289 31.166C41.8398 31.7598 41.4531 32.2305 40.9688 32.5781C40.4844 32.9219 39.8848 33.0938 39.1699 33.0938C38.9668 33.0938 38.6543 33.0723 38.2324 33.0293C38.1699 33.0215 38.0762 33.0117 37.9512 33H36.8613V23.543H37.9512V27.9258ZM37.9512 29.2207V32.0273C38.3457 32.1289 38.709 32.1797 39.041 32.1797C39.7012 32.1797 40.2559 31.9219 40.7051 31.4062C41.1582 30.8867 41.3848 30.1777 41.3848 29.2793C41.3848 28.627 41.2617 28.1367 41.0156 27.8086C40.7695 27.4805 40.4902 27.3164 40.1777 27.3164C39.8379 27.3164 39.4629 27.4883 39.0527 27.832C38.6465 28.1758 38.2793 28.6387 37.9512 29.2207ZM49.5352 26.4551V33H48.4453V31.5645C48.0938 32.1035 47.7031 32.5078 47.2734 32.7773C46.8438 33.0469 46.4141 33.1816 45.9844 33.1816C45.6016 33.1816 45.25 33.0801 44.9297 32.877C44.6133 32.6699 44.3926 32.4004 44.2676 32.0684C44.1426 31.7324 44.0801 31.0801 44.0801 30.1113V26.4551H45.1699V30.2461C45.1699 30.875 45.1992 31.291 45.2578 31.4941C45.3203 31.6934 45.4316 31.8574 45.5918 31.9863C45.7559 32.1152 45.9316 32.1797 46.1191 32.1797C46.502 32.1797 46.9121 32 47.3496 31.6406C47.791 31.2773 48.1562 30.8203 48.4453 30.2695V26.4551H49.5352ZM56.8301 32.7363C56.3184 32.9512 55.9473 33.0781 55.7168 33.1172C55.4863 33.1602 55.2637 33.1816 55.0488 33.1816C54.5918 33.1816 54.1738 33.0938 53.7949 32.918C53.416 32.7422 53.1289 32.4824 52.9336 32.1387C52.7422 31.7949 52.6465 31.2637 52.6465 30.5449V27.9082H51.0117V27H52.6465V24.3633H53.7363V27H56.6484V27.9082H53.7363V30.5273C53.7363 31.0547 53.7988 31.4277 53.9238 31.6465C54.0488 31.8613 54.2148 32.0195 54.4219 32.1211C54.6328 32.2227 54.8809 32.2734 55.166 32.2734C55.6934 32.2734 56.248 32.1074 56.8301 31.7754V32.7363ZM64.0371 32.7363C63.5254 32.9512 63.1543 33.0781 62.9238 33.1172C62.6934 33.1602 62.4707 33.1816 62.2559 33.1816C61.7988 33.1816 61.3809 33.0938 61.002 32.918C60.623 32.7422 60.3359 32.4824 60.1406 32.1387C59.9492 31.7949 59.8535 31.2637 59.8535 30.5449V27.9082H58.2188V27H59.8535V24.3633H60.9434V27H63.8555V27.9082H60.9434V30.5273C60.9434 31.0547 61.0059 31.4277 61.1309 31.6465C61.2559 31.8613 61.4219 32.0195 61.6289 32.1211C61.8398 32.2227 62.0879 32.2734 62.373 32.2734C62.9004 32.2734 63.4551 32.1074 64.0371 31.7754V32.7363ZM68.4668 33.1816C67.5293 33.1816 66.7793 32.8555 66.2168 32.2031C65.6543 31.5469 65.373 30.7207 65.373 29.7246C65.373 28.7285 65.6543 27.9043 66.2168 27.252C66.7793 26.5996 67.5293 26.2734 68.4668 26.2734C69.4004 26.2734 70.1484 26.5996 70.7109 27.252C71.2734 27.9043 71.5547 28.7285 71.5547 29.7246C71.5547 30.7207 71.2734 31.5469 70.7109 32.2031C70.1484 32.8555 69.4004 33.1816 68.4668 33.1816ZM68.4668 32.2734C69.0488 32.2734 69.5117 32.0469 69.8555 31.5938C70.1992 31.1406 70.3711 30.5176 70.3711 29.7246C70.3711 28.9355 70.1992 28.3145 69.8555 27.8613C69.5117 27.4082 69.0488 27.1816 68.4668 27.1816C67.8809 27.1816 67.416 27.4082 67.0723 27.8613C66.7285 28.3145 66.5566 28.9355 66.5566 29.7246C66.5566 30.5176 66.7285 31.1406 67.0723 31.5938C67.416 32.0469 67.8809 32.2734 68.4668 32.2734ZM72.9785 33V26.4551H74.0684V27.8848C74.3809 27.3809 74.7578 26.9863 75.1992 26.7012C75.6406 26.416 76.082 26.2734 76.5234 26.2734C76.9102 26.2734 77.2617 26.377 77.5781 26.584C77.8945 26.7871 78.1152 27.0547 78.2402 27.3867C78.3691 27.7188 78.4336 28.3711 78.4336 29.3438V33H77.3438V29.209C77.3438 28.5801 77.3125 28.166 77.25 27.9668C77.1914 27.7637 77.0801 27.5977 76.916 27.4688C76.7559 27.3398 76.5801 27.2754 76.3887 27.2754C76.0059 27.2754 75.5938 27.457 75.1523 27.8203C74.7148 28.1836 74.3535 28.6387 74.0684 29.1855V33H72.9785ZM90.0879 33.1816C89.1504 33.1816 88.4004 32.8555 87.8379 32.2031C87.2754 31.5469 86.9941 30.7207 86.9941 29.7246C86.9941 28.7285 87.2754 27.9043 87.8379 27.252C88.4004 26.5996 89.1504 26.2734 90.0879 26.2734C91.0215 26.2734 91.7695 26.5996 92.332 27.252C92.8945 27.9043 93.1758 28.7285 93.1758 29.7246C93.1758 30.7207 92.8945 31.5469 92.332 32.2031C91.7695 32.8555 91.0215 33.1816 90.0879 33.1816ZM90.0879 32.2734C90.6699 32.2734 91.1328 32.0469 91.4766 31.5938C91.8203 31.1406 91.9922 30.5176 91.9922 29.7246C91.9922 28.9355 91.8203 28.3145 91.4766 27.8613C91.1328 27.4082 90.6699 27.1816 90.0879 27.1816C89.502 27.1816 89.0371 27.4082 88.6934 27.8613C88.3496 28.3145 88.1777 28.9355 88.1777 29.7246C88.1777 30.5176 88.3496 31.1406 88.6934 31.5938C89.0371 32.0469 89.502 32.2734 90.0879 32.2734ZM94.5996 33V26.4551H95.6895V27.8848C96.002 27.3809 96.3789 26.9863 96.8203 26.7012C97.2617 26.416 97.7031 26.2734 98.1445 26.2734C98.5312 26.2734 98.8828 26.377 99.1992 26.584C99.5156 26.7871 99.7363 27.0547 99.8613 27.3867C99.9902 27.7188 100.055 28.3711 100.055 29.3438V33H98.9648V29.209C98.9648 28.5801 98.9336 28.166 98.8711 27.9668C98.8125 27.7637 98.7012 27.5977 98.5371 27.4688C98.377 27.3398 98.2012 27.2754 98.0098 27.2754C97.627 27.2754 97.2148 27.457 96.7734 27.8203C96.3359 28.1836 95.9746 28.6387 95.6895 29.1855V33H94.5996ZM107.314 32.8125C106.584 33.0586 105.889 33.1816 105.229 33.1816C104.572 33.1816 103.988 33.0312 103.477 32.7305C102.969 32.4258 102.572 32.0156 102.287 31.5C102.002 30.9805 101.859 30.3906 101.859 29.7305C101.859 28.7383 102.182 27.9141 102.826 27.2578C103.475 26.6016 104.256 26.2734 105.17 26.2734C105.846 26.2734 106.561 26.4004 107.314 26.6543V27.7031C106.553 27.3555 105.871 27.1816 105.27 27.1816C104.871 27.1816 104.496 27.2812 104.145 27.4805C103.793 27.6758 103.521 27.9824 103.33 28.4004C103.139 28.8184 103.043 29.248 103.043 29.6895C103.043 30.2793 103.227 30.8418 103.594 31.377C103.965 31.9121 104.545 32.1797 105.334 32.1797C105.572 32.1797 105.807 32.1641 106.037 32.1328C106.268 32.0977 106.693 31.9746 107.314 31.7637V32.8125ZM110.771 33V24.457H108.814V23.543H111.861V32.0918H113.906V33H110.771ZM118.055 33V27.3633H116.238V26.4551H119.145V32.0918H120.967V33H118.055ZM117.873 24.0938C117.873 23.8477 117.957 23.6641 118.125 23.543C118.293 23.4219 118.451 23.3613 118.6 23.3613C118.752 23.3613 118.912 23.4219 119.08 23.543C119.248 23.6641 119.332 23.8477 119.332 24.0938C119.332 24.3359 119.248 24.5176 119.08 24.6387C118.912 24.7598 118.752 24.8203 118.6 24.8203C118.451 24.8203 118.293 24.7598 118.125 24.6387C117.957 24.5176 117.873 24.3359 117.873 24.0938ZM128.936 32.8125C128.205 33.0586 127.51 33.1816 126.85 33.1816C126.193 33.1816 125.609 33.0312 125.098 32.7305C124.59 32.4258 124.193 32.0156 123.908 31.5C123.623 30.9805 123.48 30.3906 123.48 29.7305C123.48 28.7383 123.803 27.9141 124.447 27.2578C125.096 26.6016 125.877 26.2734 126.791 26.2734C127.467 26.2734 128.182 26.4004 128.936 26.6543V27.7031C128.174 27.3555 127.492 27.1816 126.891 27.1816C126.492 27.1816 126.117 27.2812 125.766 27.4805C125.414 27.6758 125.143 27.9824 124.951 28.4004C124.76 28.8184 124.664 29.248 124.664 29.6895C124.664 30.2793 124.848 30.8418 125.215 31.377C125.586 31.9121 126.166 32.1797 126.955 32.1797C127.193 32.1797 127.428 32.1641 127.658 32.1328C127.889 32.0977 128.314 31.9746 128.936 31.7637V32.8125ZM130.928 33V23.543H132.018V29.4844L135.164 26.4551H136.617L133.477 29.4844L136.699 33H135.199L132.018 29.4844V33H130.928ZM143.713 28.3652V29.2734H137.35V28.3652H143.713ZM143.713 30.4102V31.3184H137.35V30.4102H143.713ZM146.865 26.8184H146.115L145.74 23.543H147.199L146.865 26.8184ZM149.391 26.8184H148.646L148.312 23.543H149.742L149.391 26.8184ZM233.35 26.8184H232.6L232.225 23.543H233.684L233.35 26.8184ZM235.875 26.8184H235.131L234.797 23.543H236.227L235.875 26.8184ZM244.611 29.8184L238.248 33V31.9863L242.602 29.8242L238.248 27.6387V26.6367L244.611 29.8184ZM64.0312 54.8945C63.3516 55.1484 62.7422 55.2754 62.2031 55.2754C61.4922 55.2754 60.8379 55.0859 60.2402 54.707C59.6426 54.3242 59.1777 53.7578 58.8457 53.0078C58.5137 52.2539 58.3477 51.4023 58.3477 50.4531C58.3477 49.5117 58.5117 48.666 58.8398 47.916C59.168 47.166 59.6309 46.5977 60.2285 46.2109C60.8262 45.8242 61.4844 45.6309 62.2031 45.6309C62.7422 45.6309 63.3516 45.7578 64.0312 46.0117V47.0898C63.4023 46.7266 62.7773 46.5449 62.1562 46.5449C61.6875 46.5449 61.2578 46.7051 60.8672 47.0254C60.4805 47.3457 60.168 47.8164 59.9297 48.4375C59.6914 49.0547 59.5723 49.7266 59.5723 50.4531C59.5723 51.1914 59.6953 51.873 59.9414 52.498C60.1875 53.123 60.502 53.5918 60.8848 53.9043C61.2676 54.2129 61.6914 54.3672 62.1562 54.3672C62.7734 54.3672 63.3984 54.1855 64.0312 53.8223V54.8945ZM67.5293 55V46.457H65.5723V45.543H68.6191V54.0918H70.6641V55H67.5293ZM74.8125 55V49.3633H72.9961V48.4551H75.9023V54.0918H77.7246V55H74.8125ZM74.6309 46.0938C74.6309 45.8477 74.7148 45.6641 74.8828 45.543C75.0508 45.4219 75.209 45.3613 75.3574 45.3613C75.5098 45.3613 75.6699 45.4219 75.8379 45.543C76.0059 45.6641 76.0898 45.8477 76.0898 46.0938C76.0898 46.3359 76.0059 46.5176 75.8379 46.6387C75.6699 46.7598 75.5098 46.8203 75.3574 46.8203C75.209 46.8203 75.0508 46.7598 74.8828 46.6387C74.7148 46.5176 74.6309 46.3359 74.6309 46.0938ZM85.6934 54.8125C84.9629 55.0586 84.2676 55.1816 83.6074 55.1816C82.9512 55.1816 82.3672 55.0312 81.8555 54.7305C81.3477 54.4258 80.9512 54.0156 80.666 53.5C80.3809 52.9805 80.2383 52.3906 80.2383 51.7305C80.2383 50.7383 80.5605 49.9141 81.2051 49.2578C81.8535 48.6016 82.6348 48.2734 83.5488 48.2734C84.2246 48.2734 84.9395 48.4004 85.6934 48.6543V49.7031C84.9316 49.3555 84.25 49.1816 83.6484 49.1816C83.25 49.1816 82.875 49.2812 82.5234 49.4805C82.1719 49.6758 81.9004 49.9824 81.709 50.4004C81.5176 50.8184 81.4219 51.248 81.4219 51.6895C81.4219 52.2793 81.6055 52.8418 81.9727 53.377C82.3438 53.9121 82.9238 54.1797 83.7129 54.1797C83.9512 54.1797 84.1855 54.1641 84.416 54.1328C84.6465 54.0977 85.0723 53.9746 85.6934 53.7637V54.8125ZM87.6855 55V45.543H88.7754V51.4844L91.9219 48.4551H93.375L90.2344 51.4844L93.457 55H91.957L88.7754 51.4844V55H87.6855ZM94.6758 54.6543V53.5C95.1133 53.7852 95.5762 53.9863 96.0645 54.1035C96.5527 54.2168 96.9668 54.2734 97.3066 54.2734C97.8574 54.2734 98.2539 54.1855 98.4961 54.0098C98.7383 53.8301 98.8594 53.6074 98.8594 53.3418C98.8594 53.166 98.8027 53.0156 98.6895 52.8906C98.5762 52.7656 98.2949 52.6113 97.8457 52.4277L97.4707 52.2754L96.7148 51.9766C95.9023 51.6602 95.3906 51.3672 95.1797 51.0977C94.9648 50.832 94.8574 50.5078 94.8574 50.125C94.8574 49.5859 95.0645 49.1426 95.4785 48.7949C95.8965 48.4473 96.5723 48.2734 97.5059 48.2734C98.2051 48.2734 98.8672 48.375 99.4922 48.5781V49.5684C98.7734 49.3105 98.0977 49.1816 97.4648 49.1816C97.0039 49.1816 96.6426 49.2637 96.3809 49.4277C96.123 49.5879 95.9941 49.7891 95.9941 50.0312C95.9941 50.2656 96.1074 50.4531 96.334 50.5938C96.5566 50.7344 96.9199 50.8965 97.4238 51.0801L98.1621 51.3496C98.8379 51.5957 99.3125 51.8633 99.5859 52.1523C99.8594 52.4414 99.9961 52.8027 99.9961 53.2363C99.9961 53.8027 99.7773 54.2695 99.3398 54.6367C98.9062 55 98.2109 55.1816 97.2539 55.1816C96.418 55.1816 95.5586 55.0059 94.6758 54.6543ZM104.496 55.2754C104.234 55.2754 104.01 55.1816 103.822 54.9941C103.635 54.8066 103.541 54.582 103.541 54.3203C103.541 54.0547 103.635 53.8301 103.822 53.6465C104.014 53.459 104.238 53.3652 104.496 53.3652C104.754 53.3652 104.977 53.459 105.164 53.6465C105.355 53.8301 105.451 54.0547 105.451 54.3203C105.451 54.582 105.357 54.8066 105.17 54.9941C104.982 55.1816 104.758 55.2754 104.496 55.2754ZM104.496 50.1836C104.234 50.1836 104.01 50.0898 103.822 49.9023C103.635 49.7148 103.541 49.4902 103.541 49.2285C103.541 48.9629 103.635 48.7383 103.822 48.5547C104.014 48.3672 104.238 48.2734 104.496 48.2734C104.754 48.2734 104.977 48.3672 105.164 48.5547C105.355 48.7383 105.451 48.9629 105.451 49.2285C105.451 49.4902 105.357 49.7148 105.17 49.9023C104.982 50.0898 104.758 50.1836 104.496 50.1836ZM29.2441 73.8184L35.6074 70.6367V71.6504L31.2598 73.8125L35.6074 75.998V77L29.2441 73.8184ZM37.3008 77.2754H36.2285L42.0117 67.6367H43.0488L37.3008 77.2754ZM45.1582 71.9258C45.4941 71.3789 45.8945 70.9668 46.3594 70.6895C46.8242 70.4121 47.252 70.2734 47.6426 70.2734C48.1895 70.2734 48.6816 70.5098 49.1191 70.9824C49.5566 71.4551 49.7754 72.1719 49.7754 73.1328C49.7754 73.8906 49.6289 74.5684 49.3359 75.166C49.0469 75.7598 48.6602 76.2305 48.1758 76.5781C47.6914 76.9219 47.0918 77.0938 46.377 77.0938C46.1738 77.0938 45.8613 77.0723 45.4395 77.0293C45.377 77.0215 45.2832 77.0117 45.1582 77H44.0684V67.543H45.1582V71.9258ZM45.1582 73.2207V76.0273C45.5527 76.1289 45.916 76.1797 46.248 76.1797C46.9082 76.1797 47.4629 75.9219 47.9121 75.4062C48.3652 74.8867 48.5918 74.1777 48.5918 73.2793C48.5918 72.627 48.4688 72.1367 48.2227 71.8086C47.9766 71.4805 47.6973 71.3164 47.3848 71.3164C47.0449 71.3164 46.6699 71.4883 46.2598 71.832C45.8535 72.1758 45.4863 72.6387 45.1582 73.2207ZM56.7422 70.4551V77H55.6523V75.5645C55.3008 76.1035 54.9102 76.5078 54.4805 76.7773C54.0508 77.0469 53.6211 77.1816 53.1914 77.1816C52.8086 77.1816 52.457 77.0801 52.1367 76.877C51.8203 76.6699 51.5996 76.4004 51.4746 76.0684C51.3496 75.7324 51.2871 75.0801 51.2871 74.1113V70.4551H52.377V74.2461C52.377 74.875 52.4062 75.291 52.4648 75.4941C52.5273 75.6934 52.6387 75.8574 52.7988 75.9863C52.9629 76.1152 53.1387 76.1797 53.3262 76.1797C53.709 76.1797 54.1191 76 54.5566 75.6406C54.998 75.2773 55.3633 74.8203 55.6523 74.2695V70.4551H56.7422ZM64.0371 76.7363C63.5254 76.9512 63.1543 77.0781 62.9238 77.1172C62.6934 77.1602 62.4707 77.1816 62.2559 77.1816C61.7988 77.1816 61.3809 77.0938 61.002 76.918C60.623 76.7422 60.3359 76.4824 60.1406 76.1387C59.9492 75.7949 59.8535 75.2637 59.8535 74.5449V71.9082H58.2188V71H59.8535V68.3633H60.9434V71H63.8555V71.9082H60.9434V74.5273C60.9434 75.0547 61.0059 75.4277 61.1309 75.6465C61.2559 75.8613 61.4219 76.0195 61.6289 76.1211C61.8398 76.2227 62.0879 76.2734 62.373 76.2734C62.9004 76.2734 63.4551 76.1074 64.0371 75.7754V76.7363ZM71.2441 76.7363C70.7324 76.9512 70.3613 77.0781 70.1309 77.1172C69.9004 77.1602 69.6777 77.1816 69.4629 77.1816C69.0059 77.1816 68.5879 77.0938 68.209 76.918C67.8301 76.7422 67.543 76.4824 67.3477 76.1387C67.1562 75.7949 67.0605 75.2637 67.0605 74.5449V71.9082H65.4258V71H67.0605V68.3633H68.1504V71H71.0625V71.9082H68.1504V74.5273C68.1504 75.0547 68.2129 75.4277 68.3379 75.6465C68.4629 75.8613 68.6289 76.0195 68.8359 76.1211C69.0469 76.2227 69.2949 76.2734 69.5801 76.2734C70.1074 76.2734 70.6621 76.1074 71.2441 75.7754V76.7363ZM75.6738 77.1816C74.7363 77.1816 73.9863 76.8555 73.4238 76.2031C72.8613 75.5469 72.5801 74.7207 72.5801 73.7246C72.5801 72.7285 72.8613 71.9043 73.4238 71.252C73.9863 70.5996 74.7363 70.2734 75.6738 70.2734C76.6074 70.2734 77.3555 70.5996 77.918 71.252C78.4805 71.9043 78.7617 72.7285 78.7617 73.7246C78.7617 74.7207 78.4805 75.5469 77.918 76.2031C77.3555 76.8555 76.6074 77.1816 75.6738 77.1816ZM75.6738 76.2734C76.2559 76.2734 76.7188 76.0469 77.0625 75.5938C77.4062 75.1406 77.5781 74.5176 77.5781 73.7246C77.5781 72.9355 77.4062 72.3145 77.0625 71.8613C76.7188 71.4082 76.2559 71.1816 75.6738 71.1816C75.0879 71.1816 74.623 71.4082 74.2793 71.8613C73.9355 72.3145 73.7637 72.9355 73.7637 73.7246C73.7637 74.5176 73.9355 75.1406 74.2793 75.5938C74.623 76.0469 75.0879 76.2734 75.6738 76.2734ZM80.1855 77V70.4551H81.2754V71.8848C81.5879 71.3809 81.9648 70.9863 82.4062 70.7012C82.8477 70.416 83.2891 70.2734 83.7305 70.2734C84.1172 70.2734 84.4688 70.377 84.7852 70.584C85.1016 70.7871 85.3223 71.0547 85.4473 71.3867C85.5762 71.7188 85.6406 72.3711 85.6406 73.3438V77H84.5508V73.209C84.5508 72.5801 84.5195 72.166 84.457 71.9668C84.3984 71.7637 84.2871 71.5977 84.123 71.4688C83.9629 71.3398 83.7871 71.2754 83.5957 71.2754C83.2129 71.2754 82.8008 71.457 82.3594 71.8203C81.9219 72.1836 81.5605 72.6387 81.2754 73.1855V77H80.1855ZM93.2637 73.8184L86.9004 77V75.9863L91.2539 73.8242L86.9004 71.6387V70.6367L93.2637 73.8184ZM2.72461 92.8184H1.97461L1.59961 89.543H3.05859L2.72461 92.8184ZM5.25 92.8184H4.50586L4.17188 89.543H5.60156L5.25 92.8184ZM9.93164 92.8184H9.18164L8.80664 89.543H10.2656L9.93164 92.8184ZM12.457 92.8184H11.7129L11.3789 89.543H12.8086L12.457 92.8184ZM17.1387 92.8184H16.3887L16.0137 89.543H17.4727L17.1387 92.8184ZM19.6641 92.8184H18.9199L18.5859 89.543H20.0156L19.6641 92.8184Z" fill="#CD9F88"/>
<path d="M3.03516 143L0.193359 136.455H1.38867L3.63281 141.635L5.92383 136.455H7.01367L4.14844 143H3.03516ZM10.8105 143.182C9.87305 143.182 9.12305 142.855 8.56055 142.203C7.99805 141.547 7.7168 140.721 7.7168 139.725C7.7168 138.729 7.99805 137.904 8.56055 137.252C9.12305 136.6 9.87305 136.273 10.8105 136.273C11.7441 136.273 12.4922 136.6 13.0547 137.252C13.6172 137.904 13.8984 138.729 13.8984 139.725C13.8984 140.721 13.6172 141.547 13.0547 142.203C12.4922 142.855 11.7441 143.182 10.8105 143.182ZM10.8105 142.273C11.3926 142.273 11.8555 142.047 12.1992 141.594C12.543 141.141 12.7148 140.518 12.7148 139.725C12.7148 138.936 12.543 138.314 12.1992 137.861C11.8555 137.408 11.3926 137.182 10.8105 137.182C10.2246 137.182 9.75977 137.408 9.41602 137.861C9.07227 138.314 8.90039 138.936 8.90039 139.725C8.90039 140.518 9.07227 141.141 9.41602 141.594C9.75977 142.047 10.2246 142.273 10.8105 142.273ZM17.1562 143V137.363H15.3398V136.455H18.2461V142.092H20.0684V143H17.1562ZM16.9746 134.094C16.9746 133.848 17.0586 133.664 17.2266 133.543C17.3945 133.422 17.5527 133.361 17.7012 133.361C17.8535 133.361 18.0137 133.422 18.1816 133.543C18.3496 133.664 18.4336 133.848 18.4336 134.094C18.4336 134.336 18.3496 134.518 18.1816 134.639C18.0137 134.76 17.8535 134.82 17.7012 134.82C17.5527 134.82 17.3945 134.76 17.2266 134.639C17.0586 134.518 16.9746 134.336 16.9746 134.094ZM26.9004 141.529C26.5684 142.076 26.168 142.488 25.6992 142.766C25.2344 143.043 24.8066 143.182 24.416 143.182C23.8691 143.182 23.377 142.945 22.9395 142.473C22.5059 142 22.2891 141.283 22.2891 140.322C22.2891 139.564 22.4336 138.889 22.7227 138.295C23.0117 137.697 23.3984 137.227 23.8828 136.883C24.3672 136.535 24.9668 136.361 25.6816 136.361C25.8887 136.361 26.2012 136.383 26.6191 136.426C26.6816 136.434 26.7754 136.443 26.9004 136.455V133.543H27.9961V143H26.9004V141.529ZM26.9004 140.234V137.428C26.5137 137.326 26.1543 137.275 25.8223 137.275C25.1504 137.275 24.5898 137.535 24.1406 138.055C23.6953 138.574 23.4727 139.281 23.4727 140.176C23.4727 140.824 23.5938 141.314 23.8359 141.646C24.082 141.975 24.3613 142.139 24.6738 142.139C25.0137 142.139 25.3887 141.967 25.7988 141.623C26.209 141.279 26.5762 140.816 26.9004 140.234Z" fill="#6699D0"/>
<path d="M107.18 145.18C106.098 145.113 105.186 144.807 104.443 144.26C103.701 143.717 103.107 142.982 102.662 142.057C102.221 141.131 102 140.203 102 139.273C102 138.344 102.221 137.416 102.662 136.49C103.107 135.564 103.701 134.83 104.443 134.287C105.186 133.74 106.098 133.432 107.18 133.361V134.275C106.363 134.35 105.66 134.625 105.07 135.102C104.484 135.574 104.023 136.178 103.688 136.912C103.352 137.646 103.184 138.434 103.184 139.273C103.184 140.113 103.352 140.9 103.688 141.635C104.023 142.369 104.484 142.973 105.07 143.445C105.66 143.918 106.363 144.193 107.18 144.271V145.18ZM217.131 133.361C218.213 133.432 219.125 133.74 219.867 134.287C220.609 134.83 221.201 135.564 221.643 136.49C222.088 137.416 222.311 138.344 222.311 139.273C222.311 140.203 222.088 141.131 221.643 142.057C221.201 142.982 220.609 143.717 219.867 144.26C219.125 144.807 218.213 145.113 217.131 145.18V144.271C217.947 144.193 218.648 143.918 219.234 143.445C219.824 142.973 220.287 142.369 220.623 141.635C220.963 140.9 221.133 140.113 221.133 139.273C221.133 138.434 220.963 137.646 220.623 136.912C220.287 136.178 219.824 135.574 219.234 135.102C218.648 134.625 217.947 134.35 217.131 134.275V133.361Z" fill="#AED4F9"/>
</svg>
